<svg xmlns="http://www.w3.org/2000/svg" xmlns:xlink="http://www.w3.org/1999/xlink" width="250" zoomAndPan="magnify" viewBox="0 0 187.5 30.000001" height="40" preserveAspectRatio="xMidYMid meet" version="1.0"><defs><g/><clipPath id="40d6078825"><path d="M 128 0 L 184.234375 0 L 184.234375 29 L 128 29 Z M 128 0 " clip-rule="nonzero"/></clipPath><clipPath id="b764eea6db"><path d="M 88 9 L 99 9 L 99 20 L 88 20 Z M 88 9 " clip-rule="nonzero"/></clipPath><clipPath id="5446d4edd4"><path d="M 93.242188 9.402344 C 90.414062 9.402344 88.113281 11.703125 88.113281 14.527344 C 88.113281 17.355469 90.414062 19.65625 93.242188 19.65625 C 96.066406 19.65625 98.367188 17.355469 98.367188 14.527344 C 98.367188 11.703125 96.066406 9.402344 93.242188 9.402344 Z M 93.242188 18.902344 C 92.015625 18.902344 90.910156 18.394531 90.113281 17.582031 C 90.53125 16.214844 91.785156 15.273438 93.234375 15.269531 C 93.238281 15.269531 93.238281 15.269531 93.242188 15.269531 C 93.246094 15.269531 93.246094 15.269531 93.25 15.269531 C 94.695312 15.273438 95.945312 16.214844 96.367188 17.582031 C 95.570312 18.394531 94.464844 18.902344 93.242188 18.902344 Z M 91.75 13.027344 C 91.75 12.203125 92.421875 11.535156 93.242188 11.535156 C 94.0625 11.535156 94.730469 12.207031 94.730469 13.027344 C 94.730469 13.847656 94.066406 14.511719 93.246094 14.515625 C 93.246094 14.515625 93.242188 14.515625 93.242188 14.515625 C 93.242188 14.515625 93.238281 14.515625 93.238281 14.515625 C 92.417969 14.515625 91.75 13.851562 91.75 13.027344 Z M 96.914062 16.894531 C 96.46875 15.902344 95.648438 15.144531 94.648438 14.773438 C 95.15625 14.363281 95.484375 13.730469 95.484375 13.027344 C 95.484375 11.789062 94.480469 10.785156 93.242188 10.785156 C 92.003906 10.785156 90.996094 11.792969 90.996094 13.027344 C 90.996094 13.730469 91.324219 14.359375 91.832031 14.773438 C 90.832031 15.144531 90.011719 15.902344 89.566406 16.894531 C 89.125 16.210938 88.867188 15.402344 88.867188 14.527344 C 88.867188 12.117188 90.828125 10.15625 93.242188 10.15625 C 95.652344 10.15625 97.613281 12.117188 97.613281 14.527344 C 97.613281 15.402344 97.355469 16.214844 96.914062 16.894531 Z M 96.914062 16.894531 " clip-rule="nonzero"/></clipPath><linearGradient x1="18.379989" gradientTransform="matrix(0.376418, 0, 0, 0.376418, 81.195403, 2.483222)" y1="32" x2="45.619985" gradientUnits="userSpaceOnUse" y2="32" id="04eae52d57"><stop stop-opacity="1" stop-color="rgb(100%, 74.098206%, 34.898376%)" offset="0"/><stop stop-opacity="1" stop-color="rgb(100%, 73.963928%, 34.861755%)" offset="0.015625"/><stop stop-opacity="1" stop-color="rgb(100%, 73.695374%, 34.788513%)" offset="0.03125"/><stop stop-opacity="1" stop-color="rgb(100%, 73.426819%, 34.715271%)" offset="0.046875"/><stop stop-opacity="1" stop-color="rgb(100%, 73.156738%, 34.642029%)" offset="0.0625"/><stop stop-opacity="1" stop-color="rgb(100%, 72.888184%, 34.568787%)" offset="0.078125"/><stop stop-opacity="1" stop-color="rgb(100%, 72.619629%, 34.495544%)" offset="0.09375"/><stop stop-opacity="1" stop-color="rgb(100%, 72.351074%, 34.420776%)" offset="0.109375"/><stop stop-opacity="1" stop-color="rgb(100%, 72.08252%, 34.347534%)" offset="0.125"/><stop stop-opacity="1" stop-color="rgb(100%, 71.813965%, 34.274292%)" offset="0.140625"/><stop stop-opacity="1" stop-color="rgb(100%, 71.54541%, 34.20105%)" offset="0.15625"/><stop stop-opacity="1" stop-color="rgb(100%, 71.276855%, 34.127808%)" offset="0.171875"/><stop stop-opacity="1" stop-color="rgb(100%, 71.008301%, 34.054565%)" offset="0.1875"/><stop stop-opacity="1" stop-color="rgb(100%, 70.739746%, 33.981323%)" offset="0.203125"/><stop stop-opacity="1" stop-color="rgb(100%, 70.469666%, 33.908081%)" offset="0.21875"/><stop stop-opacity="1" stop-color="rgb(100%, 70.201111%, 33.834839%)" offset="0.234375"/><stop stop-opacity="1" stop-color="rgb(100%, 69.932556%, 33.760071%)" offset="0.25"/><stop stop-opacity="1" stop-color="rgb(100%, 69.664001%, 33.686829%)" offset="0.265625"/><stop stop-opacity="1" stop-color="rgb(100%, 69.395447%, 33.613586%)" offset="0.28125"/><stop stop-opacity="1" stop-color="rgb(100%, 69.126892%, 33.540344%)" offset="0.296875"/><stop stop-opacity="1" stop-color="rgb(100%, 68.858337%, 33.467102%)" offset="0.3125"/><stop stop-opacity="1" stop-color="rgb(100%, 68.589783%, 33.39386%)" offset="0.328125"/><stop stop-opacity="1" stop-color="rgb(100%, 68.321228%, 33.320618%)" offset="0.34375"/><stop stop-opacity="1" stop-color="rgb(100%, 68.052673%, 33.247375%)" offset="0.359375"/><stop stop-opacity="1" stop-color="rgb(100%, 67.782593%, 33.172607%)" offset="0.375"/><stop stop-opacity="1" stop-color="rgb(100%, 67.514038%, 33.099365%)" offset="0.390625"/><stop stop-opacity="1" stop-color="rgb(100%, 67.245483%, 33.026123%)" offset="0.40625"/><stop stop-opacity="1" stop-color="rgb(100%, 66.976929%, 32.952881%)" offset="0.421875"/><stop stop-opacity="1" stop-color="rgb(100%, 66.708374%, 32.879639%)" offset="0.4375"/><stop stop-opacity="1" stop-color="rgb(100%, 66.439819%, 32.806396%)" offset="0.453125"/><stop stop-opacity="1" stop-color="rgb(100%, 66.171265%, 32.733154%)" offset="0.46875"/><stop stop-opacity="1" stop-color="rgb(100%, 65.90271%, 32.659912%)" offset="0.484375"/><stop stop-opacity="1" stop-color="rgb(100%, 65.634155%, 32.585144%)" offset="0.5"/><stop stop-opacity="1" stop-color="rgb(100%, 65.364075%, 32.511902%)" offset="0.515625"/><stop stop-opacity="1" stop-color="rgb(100%, 65.09552%, 32.43866%)" offset="0.53125"/><stop stop-opacity="1" stop-color="rgb(100%, 64.826965%, 32.365417%)" offset="0.546875"/><stop stop-opacity="1" stop-color="rgb(100%, 64.558411%, 32.292175%)" offset="0.5625"/><stop stop-opacity="1" stop-color="rgb(100%, 64.289856%, 32.218933%)" offset="0.578125"/><stop stop-opacity="1" stop-color="rgb(100%, 64.021301%, 32.145691%)" offset="0.59375"/><stop stop-opacity="1" stop-color="rgb(100%, 63.752747%, 32.072449%)" offset="0.609375"/><stop stop-opacity="1" stop-color="rgb(100%, 63.484192%, 31.999207%)" offset="0.625"/><stop stop-opacity="1" stop-color="rgb(100%, 63.215637%, 31.924438%)" offset="0.640625"/><stop stop-opacity="1" stop-color="rgb(100%, 62.947083%, 31.851196%)" offset="0.65625"/><stop stop-opacity="1" stop-color="rgb(100%, 62.677002%, 31.777954%)" offset="0.671875"/><stop stop-opacity="1" stop-color="rgb(100%, 62.408447%, 31.704712%)" offset="0.6875"/><stop stop-opacity="1" stop-color="rgb(100%, 62.139893%, 31.63147%)" offset="0.703125"/><stop stop-opacity="1" stop-color="rgb(100%, 61.871338%, 31.558228%)" offset="0.71875"/><stop stop-opacity="1" stop-color="rgb(100%, 61.602783%, 31.484985%)" offset="0.734375"/><stop stop-opacity="1" stop-color="rgb(100%, 61.334229%, 31.411743%)" offset="0.75"/><stop stop-opacity="1" stop-color="rgb(100%, 61.065674%, 31.336975%)" offset="0.765625"/><stop stop-opacity="1" stop-color="rgb(100%, 60.797119%, 31.263733%)" offset="0.78125"/><stop stop-opacity="1" stop-color="rgb(100%, 60.528564%, 31.190491%)" offset="0.796875"/><stop stop-opacity="1" stop-color="rgb(100%, 60.26001%, 31.117249%)" offset="0.8125"/><stop stop-opacity="1" stop-color="rgb(100%, 59.989929%, 31.044006%)" offset="0.828125"/><stop stop-opacity="1" stop-color="rgb(100%, 59.721375%, 30.970764%)" offset="0.84375"/><stop stop-opacity="1" stop-color="rgb(100%, 59.45282%, 30.897522%)" offset="0.859375"/><stop stop-opacity="1" stop-color="rgb(100%, 59.184265%, 30.82428%)" offset="0.875"/><stop stop-opacity="1" stop-color="rgb(100%, 58.91571%, 30.749512%)" offset="0.890625"/><stop stop-opacity="1" stop-color="rgb(100%, 58.647156%, 30.67627%)" offset="0.90625"/><stop stop-opacity="1" stop-color="rgb(100%, 58.378601%, 30.603027%)" offset="0.921875"/><stop stop-opacity="1" stop-color="rgb(100%, 58.110046%, 30.529785%)" offset="0.9375"/><stop stop-opacity="1" stop-color="rgb(100%, 57.841492%, 30.456543%)" offset="0.953125"/><stop stop-opacity="1" stop-color="rgb(100%, 57.572937%, 30.383301%)" offset="0.96875"/><stop stop-opacity="1" stop-color="rgb(100%, 57.302856%, 30.310059%)" offset="0.984375"/><stop stop-opacity="1" stop-color="rgb(100%, 57.034302%, 30.236816%)" offset="1"/></linearGradient><clipPath id="c087488b0b"><path d="M 82.324219 3.613281 L 104.15625 3.613281 L 104.15625 25.445312 L 82.324219 25.445312 Z M 82.324219 3.613281 " clip-rule="nonzero"/></clipPath><clipPath id="48bbe2c9f7"><path d="M 103.78125 14.152344 L 102.613281 14.152344 C 102.421875 9.277344 98.492188 5.347656 93.617188 5.15625 L 93.617188 3.988281 C 93.617188 3.78125 93.449219 3.613281 93.242188 3.613281 C 93.035156 3.613281 92.863281 3.78125 92.863281 3.988281 L 92.863281 5.15625 C 87.988281 5.347656 84.058594 9.277344 83.867188 14.152344 L 82.699219 14.152344 C 82.492188 14.152344 82.324219 14.320312 82.324219 14.527344 C 82.324219 14.734375 82.492188 14.90625 82.699219 14.90625 L 83.867188 14.90625 C 84.058594 19.78125 87.988281 23.710938 92.863281 23.902344 L 92.863281 25.066406 C 92.863281 25.273438 93.035156 25.445312 93.242188 25.445312 C 93.449219 25.445312 93.617188 25.273438 93.617188 25.066406 L 93.617188 23.902344 C 98.492188 23.710938 102.421875 19.78125 102.613281 14.90625 L 103.78125 14.90625 C 103.988281 14.90625 104.15625 14.734375 104.15625 14.527344 C 104.15625 14.320312 103.988281 14.152344 103.78125 14.152344 Z M 101.859375 14.152344 L 100.523438 14.152344 C 100.335938 10.425781 97.34375 7.433594 93.617188 7.242188 L 93.617188 5.910156 C 98.078125 6.101562 101.667969 9.691406 101.859375 14.152344 Z M 99.546875 14.90625 L 99.777344 14.90625 C 99.582031 18.21875 96.929688 20.871094 93.617188 21.0625 L 93.617188 20.832031 C 93.617188 20.625 93.449219 20.457031 93.242188 20.457031 C 93.035156 20.457031 92.863281 20.625 92.863281 20.832031 L 92.863281 21.0625 C 89.550781 20.871094 86.898438 18.21875 86.707031 14.90625 L 86.9375 14.90625 C 87.144531 14.90625 87.3125 14.734375 87.3125 14.527344 C 87.3125 14.320312 87.144531 14.152344 86.9375 14.152344 L 86.707031 14.152344 C 86.894531 10.839844 89.550781 8.1875 92.863281 7.992188 L 92.863281 8.222656 C 92.863281 8.429688 93.035156 8.601562 93.242188 8.601562 C 93.449219 8.601562 93.617188 8.429688 93.617188 8.222656 L 93.617188 7.992188 C 96.929688 8.183594 99.582031 10.839844 99.777344 14.152344 L 99.546875 14.152344 C 99.339844 14.152344 99.167969 14.320312 99.167969 14.527344 C 99.167969 14.734375 99.339844 14.90625 99.546875 14.90625 Z M 92.863281 5.910156 L 92.863281 7.246094 C 89.136719 7.433594 86.144531 10.425781 85.953125 14.152344 L 84.621094 14.152344 C 84.8125 9.691406 88.402344 6.101562 92.863281 5.910156 Z M 84.621094 14.90625 L 85.957031 14.90625 C 86.144531 18.632812 89.136719 21.625 92.863281 21.816406 L 92.863281 23.152344 C 88.402344 22.957031 84.8125 19.367188 84.621094 14.90625 Z M 93.617188 23.148438 L 93.617188 21.8125 C 97.34375 21.625 100.335938 18.632812 100.527344 14.90625 L 101.863281 14.90625 C 101.667969 19.367188 98.078125 22.957031 93.617188 23.148438 Z M 93.617188 23.148438 " clip-rule="nonzero"/></clipPath><linearGradient x1="2.999989" gradientTransform="matrix(0.376418, 0, 0, 0.376418, 81.195403, 2.483222)" y1="32" x2="60.999985" gradientUnits="userSpaceOnUse" y2="32" id="5380bf4b52"><stop stop-opacity="1" stop-color="rgb(100%, 74.099731%, 34.899902%)" offset="0"/><stop stop-opacity="1" stop-color="rgb(100%, 73.965454%, 34.861755%)" offset="0.015625"/><stop stop-opacity="1" stop-color="rgb(100%, 73.695374%, 34.788513%)" offset="0.03125"/><stop stop-opacity="1" stop-color="rgb(100%, 73.426819%, 34.715271%)" offset="0.046875"/><stop stop-opacity="1" stop-color="rgb(100%, 73.158264%, 34.642029%)" offset="0.0625"/><stop stop-opacity="1" stop-color="rgb(100%, 72.889709%, 34.568787%)" offset="0.078125"/><stop stop-opacity="1" stop-color="rgb(100%, 72.621155%, 34.495544%)" offset="0.09375"/><stop stop-opacity="1" stop-color="rgb(100%, 72.3526%, 34.422302%)" offset="0.109375"/><stop stop-opacity="1" stop-color="rgb(100%, 72.084045%, 34.34906%)" offset="0.125"/><stop stop-opacity="1" stop-color="rgb(100%, 71.815491%, 34.274292%)" offset="0.140625"/><stop stop-opacity="1" stop-color="rgb(100%, 71.54541%, 34.20105%)" offset="0.15625"/><stop stop-opacity="1" stop-color="rgb(100%, 71.276855%, 34.127808%)" offset="0.171875"/><stop stop-opacity="1" stop-color="rgb(100%, 71.008301%, 34.054565%)" offset="0.1875"/><stop stop-opacity="1" stop-color="rgb(100%, 70.739746%, 33.981323%)" offset="0.203125"/><stop stop-opacity="1" stop-color="rgb(100%, 70.471191%, 33.908081%)" offset="0.21875"/><stop stop-opacity="1" stop-color="rgb(100%, 70.202637%, 33.834839%)" offset="0.234375"/><stop stop-opacity="1" stop-color="rgb(100%, 69.934082%, 33.761597%)" offset="0.25"/><stop stop-opacity="1" stop-color="rgb(100%, 69.665527%, 33.686829%)" offset="0.265625"/><stop stop-opacity="1" stop-color="rgb(100%, 69.395447%, 33.613586%)" offset="0.28125"/><stop stop-opacity="1" stop-color="rgb(100%, 69.126892%, 33.540344%)" offset="0.296875"/><stop stop-opacity="1" stop-color="rgb(100%, 68.858337%, 33.467102%)" offset="0.3125"/><stop stop-opacity="1" stop-color="rgb(100%, 68.589783%, 33.39386%)" offset="0.328125"/><stop stop-opacity="1" stop-color="rgb(100%, 68.321228%, 33.320618%)" offset="0.34375"/><stop stop-opacity="1" stop-color="rgb(100%, 68.052673%, 33.247375%)" offset="0.359375"/><stop stop-opacity="1" stop-color="rgb(100%, 67.784119%, 33.172607%)" offset="0.375"/><stop stop-opacity="1" stop-color="rgb(100%, 67.514038%, 33.099365%)" offset="0.390625"/><stop stop-opacity="1" stop-color="rgb(100%, 67.245483%, 33.026123%)" offset="0.40625"/><stop stop-opacity="1" stop-color="rgb(100%, 66.976929%, 32.952881%)" offset="0.421875"/><stop stop-opacity="1" stop-color="rgb(100%, 66.708374%, 32.879639%)" offset="0.4375"/><stop stop-opacity="1" stop-color="rgb(100%, 66.439819%, 32.806396%)" offset="0.453125"/><stop stop-opacity="1" stop-color="rgb(100%, 66.171265%, 32.733154%)" offset="0.46875"/><stop stop-opacity="1" stop-color="rgb(100%, 65.90271%, 32.659912%)" offset="0.484375"/><stop stop-opacity="1" stop-color="rgb(100%, 65.634155%, 32.585144%)" offset="0.5"/><stop stop-opacity="1" stop-color="rgb(100%, 65.364075%, 32.511902%)" offset="0.515625"/><stop stop-opacity="1" stop-color="rgb(100%, 65.09552%, 32.43866%)" offset="0.53125"/><stop stop-opacity="1" stop-color="rgb(100%, 64.826965%, 32.365417%)" offset="0.546875"/><stop stop-opacity="1" stop-color="rgb(100%, 64.558411%, 32.292175%)" offset="0.5625"/><stop stop-opacity="1" stop-color="rgb(100%, 64.289856%, 32.218933%)" offset="0.578125"/><stop stop-opacity="1" stop-color="rgb(100%, 64.021301%, 32.145691%)" offset="0.59375"/><stop stop-opacity="1" stop-color="rgb(100%, 63.752747%, 32.072449%)" offset="0.609375"/><stop stop-opacity="1" stop-color="rgb(100%, 63.484192%, 31.997681%)" offset="0.625"/><stop stop-opacity="1" stop-color="rgb(100%, 63.214111%, 31.924438%)" offset="0.640625"/><stop stop-opacity="1" stop-color="rgb(100%, 62.945557%, 31.851196%)" offset="0.65625"/><stop stop-opacity="1" stop-color="rgb(100%, 62.677002%, 31.777954%)" offset="0.671875"/><stop stop-opacity="1" stop-color="rgb(100%, 62.408447%, 31.704712%)" offset="0.6875"/><stop stop-opacity="1" stop-color="rgb(100%, 62.139893%, 31.63147%)" offset="0.703125"/><stop stop-opacity="1" stop-color="rgb(100%, 61.871338%, 31.558228%)" offset="0.71875"/><stop stop-opacity="1" stop-color="rgb(100%, 61.602783%, 31.484985%)" offset="0.734375"/><stop stop-opacity="1" stop-color="rgb(100%, 61.334229%, 31.410217%)" offset="0.75"/><stop stop-opacity="1" stop-color="rgb(100%, 61.064148%, 31.336975%)" offset="0.765625"/><stop stop-opacity="1" stop-color="rgb(100%, 60.795593%, 31.263733%)" offset="0.78125"/><stop stop-opacity="1" stop-color="rgb(100%, 60.527039%, 31.190491%)" offset="0.796875"/><stop stop-opacity="1" stop-color="rgb(100%, 60.258484%, 31.117249%)" offset="0.8125"/><stop stop-opacity="1" stop-color="rgb(100%, 59.989929%, 31.044006%)" offset="0.828125"/><stop stop-opacity="1" stop-color="rgb(100%, 59.721375%, 30.970764%)" offset="0.84375"/><stop stop-opacity="1" stop-color="rgb(100%, 59.45282%, 30.897522%)" offset="0.859375"/><stop stop-opacity="1" stop-color="rgb(100%, 59.184265%, 30.822754%)" offset="0.875"/><stop stop-opacity="1" stop-color="rgb(100%, 58.914185%, 30.749512%)" offset="0.890625"/><stop stop-opacity="1" stop-color="rgb(100%, 58.64563%, 30.67627%)" offset="0.90625"/><stop stop-opacity="1" stop-color="rgb(100%, 58.377075%, 30.603027%)" offset="0.921875"/><stop stop-opacity="1" stop-color="rgb(100%, 58.108521%, 30.529785%)" offset="0.9375"/><stop stop-opacity="1" stop-color="rgb(100%, 57.839966%, 30.456543%)" offset="0.953125"/><stop stop-opacity="1" stop-color="rgb(100%, 57.571411%, 30.383301%)" offset="0.96875"/><stop stop-opacity="1" stop-color="rgb(100%, 57.302856%, 30.310059%)" offset="0.984375"/><stop stop-opacity="1" stop-color="rgb(100%, 57.032776%, 30.235291%)" offset="1"/></linearGradient></defs><g clip-path="url(#40d6078825)"><path stroke-linecap="butt" transform="matrix(0.397904, 0, 0, 0.397904, 134.059547, 4.01038)" fill="none" stroke-linejoin="miter" d="M 4.012781 45.004772 C 3.659367 45.004772 3.364855 44.886968 3.129246 44.661175 C 2.903454 44.425566 2.785649 44.150688 2.785649 43.826725 L 2.785649 6.816404 C 2.785649 6.423722 2.913271 6.099759 3.14888 5.834698 C 3.404124 5.569637 3.728087 5.432199 4.120769 5.432199 L 20.014591 5.432199 C 25.561231 5.432199 29.762933 6.315734 32.619698 8.072988 C 35.48628 9.830242 36.909754 12.431763 36.909754 15.887369 C 36.909754 17.772245 36.399266 19.362608 35.368475 20.668278 C 34.337684 21.954313 32.531344 23.210896 29.93964 24.418395 C 29.870921 24.447846 29.831652 24.516566 29.831652 24.614736 C 29.831652 24.693273 29.870921 24.761992 29.93964 24.791443 C 32.816039 25.851686 34.857988 27.10827 36.065486 28.571012 C 37.272985 30.023937 37.881643 31.91863 37.881643 34.235456 C 37.881643 37.887403 36.477803 40.596912 33.689758 42.354166 C 30.901712 44.121237 26.631291 45.004772 20.878493 45.004772 Z M 20.878493 20.903887 C 22.115442 20.903887 23.106966 20.56029 23.853062 19.882913 C 24.599159 19.205536 24.972207 18.331817 24.972207 17.271574 C 24.972207 16.132795 24.550074 15.209992 23.686172 14.493346 C 22.832088 13.786518 21.771845 13.423286 20.495627 13.423286 L 16.117218 13.423286 C 15.665633 13.423286 15.34167 13.51164 15.155146 13.67853 C 14.988256 13.825786 14.899902 14.100664 14.899902 14.493346 L 14.899902 19.716023 C 14.899902 20.147973 14.968622 20.462119 15.106061 20.638826 C 15.253317 20.815534 15.479109 20.903887 15.793255 20.903887 Z M 20.603615 37.003868 C 22.05654 37.003868 23.205136 36.601368 24.039586 35.786552 C 24.883854 34.961919 25.29617 33.99003 25.29617 32.890519 C 25.29617 31.791008 24.883854 30.878021 24.05922 30.171193 C 23.244404 29.454547 22.184162 29.101133 20.878493 29.101133 L 16.117218 29.101133 C 15.665633 29.101133 15.34167 29.189487 15.155146 29.376011 C 14.988256 29.552718 14.899902 29.827596 14.899902 30.220278 L 14.899902 35.816003 C 14.899902 36.257771 14.968622 36.5621 15.106061 36.748624 C 15.253317 36.915514 15.479109 37.003868 15.793255 37.003868 Z M 42.20115 6.659331 C 42.20115 5.844515 42.53493 5.432199 43.212307 5.432199 L 72.015565 5.432199 C 72.643856 5.432199 72.96782 5.805247 72.96782 6.551344 L 72.908917 12.736092 C 72.908917 13.698164 72.457332 14.1792 71.534529 14.1792 L 55.532719 14.1792 C 54.717903 14.1792 54.305586 14.51298 54.305586 15.18054 L 54.305586 19.716023 C 54.305586 20.069437 54.39394 20.344315 54.570647 20.550473 C 54.747354 20.746814 54.982963 20.844985 55.267658 20.844985 L 64.868744 20.844985 C 65.614841 20.844985 65.987889 21.198399 65.987889 21.905227 L 65.987889 28.51211 C 65.987889 29.120767 65.663926 29.425096 65.025817 29.425096 L 55.149853 29.425096 C 54.914244 29.425096 54.708086 29.503633 54.541196 29.650889 C 54.384123 29.788328 54.305586 29.965035 54.305586 30.171193 L 54.305586 35.511674 C 54.305586 35.796369 54.354671 35.99271 54.433208 36.090881 C 54.521561 36.198868 54.688452 36.247954 54.943695 36.247954 L 72.270808 36.247954 C 73.056173 36.247954 73.448856 36.591551 73.448856 37.268928 L 73.448856 43.826725 C 73.448856 44.180139 73.340868 44.474651 73.124892 44.690626 C 72.908917 44.896785 72.594771 45.004772 72.172638 45.004772 L 43.644258 45.004772 C 43.104319 45.004772 42.731271 44.896785 42.515296 44.690626 C 42.29932 44.474651 42.20115 44.131054 42.20115 43.669652 Z M 79.358726 45.004772 C 78.936593 45.004772 78.592996 44.867334 78.347569 44.61209 C 78.102143 44.337212 77.984338 43.973981 77.984338 43.502762 L 77.984338 6.659331 C 77.984338 6.227381 78.072691 5.923052 78.239581 5.736527 C 78.426106 5.530369 78.7108 5.432199 79.103483 5.432199 L 94.035233 5.432199 C 94.496635 5.432199 94.820598 5.491101 95.007122 5.618723 C 95.21328 5.736527 95.38017 5.991771 95.537243 6.394271 L 101.074066 23.348335 C 101.182053 23.63303 101.299858 23.780286 101.447114 23.780286 C 101.555102 23.780286 101.663089 23.63303 101.771077 23.348335 L 106.728693 6.983294 C 107.003571 5.952503 107.484607 5.432199 108.161984 5.432199 L 123.57477 5.432199 C 124.222696 5.432199 124.536842 5.805247 124.536842 6.551344 L 124.536842 43.453677 C 124.536842 44.023066 124.40922 44.425566 124.134343 44.661175 C 123.869282 44.886968 123.437331 45.004772 122.838491 45.004772 L 113.816611 45.004772 C 113.28649 45.004772 112.923259 44.896785 112.7171 44.690626 C 112.530576 44.474651 112.432406 44.131054 112.432406 43.669652 L 112.432406 19.716023 C 112.432406 19.441145 112.363686 19.293889 112.226247 19.293889 C 112.039723 19.293889 111.902284 19.460779 111.794297 19.784742 L 104.117355 44.032883 C 103.862111 44.680809 103.439978 45.004772 102.841137 45.004772 L 97.235595 45.004772 C 96.597486 45.004772 96.165535 44.680809 95.94956 44.032883 L 88.282435 20.197059 C 88.16463 19.843644 88.037008 19.666937 87.89957 19.666937 C 87.722863 19.666937 87.624692 19.853462 87.624692 20.246144 L 87.624692 43.826725 C 87.624692 44.288127 87.555972 44.602273 87.418534 44.769163 C 87.281095 44.926236 86.957132 45.004772 86.456462 45.004772 Z M 79.358726 45.004772 " stroke="#ffbd59" stroke-width="2.833353" stroke-opacity="1" stroke-miterlimit="4"/></g><g fill="#ffffff" fill-opacity="1"><g transform="translate(2.79469, 21.91607)"><g><path d="M 10.484375 -11.515625 C 10.140625 -11.890625 9.773438 -12.175781 9.390625 -12.375 C 9.003906 -12.570312 8.441406 -12.671875 7.703125 -12.671875 C 6.960938 -12.671875 6.414062 -12.5625 6.0625 -12.34375 C 5.707031 -12.132812 5.53125 -11.878906 5.53125 -11.578125 C 5.53125 -11.078125 5.984375 -10.71875 6.890625 -10.5 L 10.421875 -9.59375 C 11.703125 -9.269531 12.664062 -8.695312 13.3125 -7.875 C 13.96875 -7.0625 14.296875 -6.09375 14.296875 -4.96875 C 14.296875 -3.914062 14.019531 -3 13.46875 -2.21875 C 12.914062 -1.445312 12.125 -0.847656 11.09375 -0.421875 C 10.070312 0.00390625 8.878906 0.21875 7.515625 0.21875 C 5.953125 0.21875 4.53125 -0.0390625 3.25 -0.5625 C 1.976562 -1.082031 1.09375 -1.757812 0.59375 -2.59375 C 0.519531 -2.726562 0.484375 -2.832031 0.484375 -2.90625 C 0.484375 -3.050781 0.5625 -3.175781 0.71875 -3.28125 L 2.90625 -4.796875 C 3.0625 -4.890625 3.203125 -4.9375 3.328125 -4.9375 C 3.484375 -4.9375 3.613281 -4.875 3.71875 -4.75 C 4.195312 -4.125 4.679688 -3.6875 5.171875 -3.4375 C 5.671875 -3.1875 6.332031 -3.0625 7.15625 -3.0625 C 7.945312 -3.0625 8.570312 -3.171875 9.03125 -3.390625 C 9.488281 -3.609375 9.71875 -3.90625 9.71875 -4.28125 C 9.71875 -4.550781 9.601562 -4.785156 9.375 -4.984375 C 9.15625 -5.179688 8.820312 -5.332031 8.375 -5.4375 L 5.15625 -6.21875 C 3.882812 -6.53125 2.875 -7.113281 2.125 -7.96875 C 1.375 -8.820312 1 -9.804688 1 -10.921875 C 1 -11.847656 1.265625 -12.695312 1.796875 -13.46875 C 2.335938 -14.238281 3.101562 -14.84375 4.09375 -15.28125 C 5.082031 -15.726562 6.226562 -15.953125 7.53125 -15.953125 C 8.800781 -15.953125 9.976562 -15.742188 11.0625 -15.328125 C 12.15625 -14.910156 12.945312 -14.359375 13.4375 -13.671875 C 13.53125 -13.535156 13.578125 -13.410156 13.578125 -13.296875 C 13.578125 -13.203125 13.53125 -13.113281 13.4375 -13.03125 L 11.125 -11.359375 C 11.050781 -11.296875 10.972656 -11.265625 10.890625 -11.265625 C 10.785156 -11.265625 10.648438 -11.347656 10.484375 -11.515625 Z M 10.484375 -11.515625 "/></g></g></g><g fill="#ffffff" fill-opacity="1"><g transform="translate(17.669523, 21.91607)"><g><path d="M 1.109375 -15.25 C 1.109375 -15.582031 1.238281 -15.75 1.5 -15.75 L 12.96875 -15.75 C 13.21875 -15.75 13.34375 -15.597656 13.34375 -15.296875 L 13.328125 -12.84375 C 13.328125 -12.457031 13.144531 -12.265625 12.78125 -12.265625 L 6.40625 -12.265625 C 6.082031 -12.265625 5.921875 -12.128906 5.921875 -11.859375 L 5.921875 -10.0625 C 5.921875 -9.914062 5.953125 -9.800781 6.015625 -9.71875 C 6.085938 -9.644531 6.179688 -9.609375 6.296875 -9.609375 L 10.125 -9.609375 C 10.414062 -9.609375 10.5625 -9.46875 10.5625 -9.1875 L 10.5625 -6.5625 C 10.5625 -6.320312 10.4375 -6.203125 10.1875 -6.203125 L 6.265625 -6.203125 C 6.160156 -6.203125 6.078125 -6.171875 6.015625 -6.109375 C 5.953125 -6.054688 5.921875 -5.988281 5.921875 -5.90625 L 5.921875 -3.78125 C 5.921875 -3.664062 5.9375 -3.585938 5.96875 -3.546875 C 6.007812 -3.503906 6.078125 -3.484375 6.171875 -3.484375 L 13.078125 -3.484375 C 13.378906 -3.484375 13.53125 -3.347656 13.53125 -3.078125 L 13.53125 -0.46875 C 13.53125 -0.320312 13.488281 -0.207031 13.40625 -0.125 C 13.320312 -0.0390625 13.195312 0 13.03125 0 L 1.671875 0 C 1.460938 0 1.316406 -0.0390625 1.234375 -0.125 C 1.148438 -0.207031 1.109375 -0.34375 1.109375 -0.53125 Z M 1.109375 -15.25 "/></g></g></g><g fill="#ffffff" fill-opacity="1"><g transform="translate(31.907774, 21.91607)"><g><path d="M 1.109375 -15.25 C 1.109375 -15.40625 1.140625 -15.523438 1.203125 -15.609375 C 1.273438 -15.703125 1.375 -15.75 1.5 -15.75 L 5.53125 -15.75 C 5.789062 -15.75 5.921875 -15.597656 5.921875 -15.296875 L 5.921875 -3.78125 C 5.921875 -3.664062 5.9375 -3.585938 5.96875 -3.546875 C 6.007812 -3.503906 6.078125 -3.484375 6.171875 -3.484375 L 12.5625 -3.484375 C 12.882812 -3.484375 13.046875 -3.347656 13.046875 -3.078125 L 13.046875 -0.46875 C 13.046875 -0.320312 13 -0.207031 12.90625 -0.125 C 12.820312 -0.0390625 12.691406 0 12.515625 0 L 1.671875 0 C 1.460938 0 1.316406 -0.0390625 1.234375 -0.125 C 1.148438 -0.207031 1.109375 -0.34375 1.109375 -0.53125 Z M 1.109375 -15.25 "/></g></g></g><g fill="#ffffff" fill-opacity="1"><g transform="translate(45.551882, 21.91607)"><g><path d="M 1.109375 -15.25 C 1.109375 -15.582031 1.238281 -15.75 1.5 -15.75 L 12.96875 -15.75 C 13.21875 -15.75 13.34375 -15.597656 13.34375 -15.296875 L 13.328125 -12.84375 C 13.328125 -12.457031 13.144531 -12.265625 12.78125 -12.265625 L 6.40625 -12.265625 C 6.082031 -12.265625 5.921875 -12.128906 5.921875 -11.859375 L 5.921875 -10.0625 C 5.921875 -9.914062 5.953125 -9.800781 6.015625 -9.71875 C 6.085938 -9.644531 6.179688 -9.609375 6.296875 -9.609375 L 10.125 -9.609375 C 10.414062 -9.609375 10.5625 -9.46875 10.5625 -9.1875 L 10.5625 -6.5625 C 10.5625 -6.320312 10.4375 -6.203125 10.1875 -6.203125 L 6.265625 -6.203125 C 6.160156 -6.203125 6.078125 -6.171875 6.015625 -6.109375 C 5.953125 -6.054688 5.921875 -5.988281 5.921875 -5.90625 L 5.921875 -3.78125 C 5.921875 -3.664062 5.9375 -3.585938 5.96875 -3.546875 C 6.007812 -3.503906 6.078125 -3.484375 6.171875 -3.484375 L 13.078125 -3.484375 C 13.378906 -3.484375 13.53125 -3.347656 13.53125 -3.078125 L 13.53125 -0.46875 C 13.53125 -0.320312 13.488281 -0.207031 13.40625 -0.125 C 13.320312 -0.0390625 13.195312 0 13.03125 0 L 1.671875 0 C 1.460938 0 1.316406 -0.0390625 1.234375 -0.125 C 1.148438 -0.207031 1.109375 -0.34375 1.109375 -0.53125 Z M 1.109375 -15.25 "/></g></g></g><g fill="#ffffff" fill-opacity="1"><g transform="translate(59.790133, 21.91607)"><g><path d="M 8.171875 -15.953125 C 9.347656 -15.953125 10.410156 -15.742188 11.359375 -15.328125 C 12.304688 -14.910156 13.082031 -14.332031 13.6875 -13.59375 C 14.289062 -12.863281 14.6875 -12.023438 14.875 -11.078125 C 14.914062 -10.910156 14.9375 -10.773438 14.9375 -10.671875 C 14.9375 -10.546875 14.910156 -10.460938 14.859375 -10.421875 C 14.816406 -10.378906 14.726562 -10.347656 14.59375 -10.328125 L 10.890625 -10.09375 C 10.742188 -10.09375 10.648438 -10.117188 10.609375 -10.171875 C 10.566406 -10.222656 10.523438 -10.332031 10.484375 -10.5 C 10.359375 -11.175781 10.125 -11.707031 9.78125 -12.09375 C 9.4375 -12.488281 8.941406 -12.6875 8.296875 -12.6875 C 7.460938 -12.6875 6.816406 -12.316406 6.359375 -11.578125 C 5.910156 -10.847656 5.6875 -9.65625 5.6875 -8 C 5.6875 -6.289062 5.894531 -5.070312 6.3125 -4.34375 C 6.726562 -3.625 7.382812 -3.265625 8.28125 -3.265625 C 9.03125 -3.265625 9.664062 -3.453125 10.1875 -3.828125 C 10.71875 -4.210938 11.160156 -4.851562 11.515625 -5.75 C 11.554688 -5.875 11.675781 -5.9375 11.875 -5.9375 C 11.976562 -5.9375 12.054688 -5.929688 12.109375 -5.921875 L 14.765625 -5.390625 C 14.984375 -5.316406 15.09375 -5.15625 15.09375 -4.90625 C 15.09375 -4.507812 14.847656 -3.894531 14.359375 -3.0625 C 13.867188 -2.238281 13.101562 -1.484375 12.0625 -0.796875 C 11.019531 -0.117188 9.707031 0.21875 8.125 0.21875 C 6.625 0.21875 5.304688 -0.140625 4.171875 -0.859375 C 3.046875 -1.578125 2.175781 -2.5625 1.5625 -3.8125 C 0.945312 -5.0625 0.640625 -6.484375 0.640625 -8.078125 C 0.640625 -9.660156 0.945312 -11.046875 1.5625 -12.234375 C 2.175781 -13.429688 3.050781 -14.347656 4.1875 -14.984375 C 5.332031 -15.628906 6.660156 -15.953125 8.171875 -15.953125 Z M 8.171875 -15.953125 "/></g></g></g><g fill="#ffffff" fill-opacity="1"><g transform="translate(75.428869, 21.91607)"><g><path d="M 5.53125 -15.75 C 5.789062 -15.75 5.921875 -15.597656 5.921875 -15.296875 L 5.921875 -0.609375 C 5.921875 -0.390625 5.863281 -0.234375 5.75 -0.140625 C 5.632812 -0.046875 5.457031 0 5.21875 0 L 1.671875 0 C 1.460938 0 1.316406 -0.0390625 1.234375 -0.125 C 1.148438 -0.207031 1.109375 -0.34375 1.109375 -0.53125 L 1.109375 -15.25 C 1.109375 -15.40625 1.140625 -15.523438 1.203125 -15.609375 C 1.273438 -15.703125 1.375 -15.75 1.5 -15.75 Z M 5.53125 -15.75 "/></g></g></g><g fill="#ffffff" fill-opacity="1"><g transform="translate(82.450139, 21.91607)"><g/></g></g><g fill="#ffffff" fill-opacity="1"><g transform="translate(86.694027, 21.91607)"><g/></g></g><g fill="#ffffff" fill-opacity="1"><g transform="translate(90.937916, 21.91607)"><g/></g></g><g fill="#ffffff" fill-opacity="1"><g transform="translate(95.181805, 21.91607)"><g/></g></g><g fill="#ffffff" fill-opacity="1"><g transform="translate(99.425693, 21.91607)"><g/></g></g><g fill="#ffffff" fill-opacity="1"><g transform="translate(103.663407, 21.91607)"><g><path d="M 14.71875 -15.75 C 14.9375 -15.75 15.046875 -15.628906 15.046875 -15.390625 L 15.046875 -0.375 C 15.046875 -0.269531 15 -0.179688 14.90625 -0.109375 C 14.8125 -0.0351562 14.695312 0 14.5625 0 L 11.65625 0 C 11.519531 0 11.410156 -0.0195312 11.328125 -0.0625 C 11.253906 -0.101562 11.171875 -0.1875 11.078125 -0.3125 L 5.234375 -8.234375 C 5.179688 -8.304688 5.132812 -8.332031 5.09375 -8.3125 C 5.050781 -8.300781 5.03125 -8.257812 5.03125 -8.1875 L 5.03125 -0.46875 C 5.039062 -0.300781 5.003906 -0.179688 4.921875 -0.109375 C 4.847656 -0.0351562 4.710938 0 4.515625 0 L 1.640625 0 C 1.285156 0 1.109375 -0.140625 1.109375 -0.421875 L 1.109375 -15.25 C 1.109375 -15.582031 1.257812 -15.75 1.5625 -15.75 L 5.03125 -15.75 C 5.21875 -15.75 5.351562 -15.722656 5.4375 -15.671875 C 5.53125 -15.617188 5.632812 -15.515625 5.75 -15.359375 L 10.84375 -8.28125 C 10.925781 -8.144531 11.003906 -8.078125 11.078125 -8.078125 C 11.148438 -8.078125 11.1875 -8.171875 11.1875 -8.359375 L 11.1875 -15.296875 C 11.1875 -15.597656 11.34375 -15.75 11.65625 -15.75 Z M 14.71875 -15.75 "/></g></g></g><g fill="#ffffff" fill-opacity="1"><g transform="translate(119.811411, 21.91607)"><g><path d="M 1.109375 -15.25 C 1.109375 -15.582031 1.238281 -15.75 1.5 -15.75 L 12.96875 -15.75 C 13.21875 -15.75 13.34375 -15.597656 13.34375 -15.296875 L 13.328125 -12.84375 C 13.328125 -12.457031 13.144531 -12.265625 12.78125 -12.265625 L 6.40625 -12.265625 C 6.082031 -12.265625 5.921875 -12.128906 5.921875 -11.859375 L 5.921875 -10.0625 C 5.921875 -9.914062 5.953125 -9.800781 6.015625 -9.71875 C 6.085938 -9.644531 6.179688 -9.609375 6.296875 -9.609375 L 10.125 -9.609375 C 10.414062 -9.609375 10.5625 -9.46875 10.5625 -9.1875 L 10.5625 -6.5625 C 10.5625 -6.320312 10.4375 -6.203125 10.1875 -6.203125 L 6.265625 -6.203125 C 6.160156 -6.203125 6.078125 -6.171875 6.015625 -6.109375 C 5.953125 -6.054688 5.921875 -5.988281 5.921875 -5.90625 L 5.921875 -3.78125 C 5.921875 -3.664062 5.9375 -3.585938 5.96875 -3.546875 C 6.007812 -3.503906 6.078125 -3.484375 6.171875 -3.484375 L 13.078125 -3.484375 C 13.378906 -3.484375 13.53125 -3.347656 13.53125 -3.078125 L 13.53125 -0.46875 C 13.53125 -0.320312 13.488281 -0.207031 13.40625 -0.125 C 13.320312 -0.0390625 13.195312 0 13.03125 0 L 1.671875 0 C 1.460938 0 1.316406 -0.0390625 1.234375 -0.125 C 1.148438 -0.207031 1.109375 -0.34375 1.109375 -0.53125 Z M 1.109375 -15.25 "/></g></g></g><g clip-path="url(#b764eea6db)"><g clip-path="url(#5446d4edd4)"><path fill="url(#04eae52d57)" d="M 88.113281 9.402344 L 88.113281 19.65625 L 98.367188 19.65625 L 98.367188 9.402344 Z M 88.113281 9.402344 " fill-rule="nonzero"/></g></g><g clip-path="url(#c087488b0b)"><g clip-path="url(#48bbe2c9f7)"><path fill="url(#5380bf4b52)" d="M 82.324219 3.613281 L 82.324219 25.445312 L 104.15625 25.445312 L 104.15625 3.613281 Z M 82.324219 3.613281 " fill-rule="nonzero"/></g></g></svg>