<svg xmlns="http://www.w3.org/2000/svg" xmlns:xlink="http://www.w3.org/1999/xlink" width="250" zoomAndPan="magnify" viewBox="0 0 187.5 30.000001" height="40" preserveAspectRatio="xMidYMid meet" version="1.0"><defs><g/><clipPath id="a33f8510f6"><path d="M 128 0 L 184.234375 0 L 184.234375 29 L 128 29 Z M 128 0 " clip-rule="nonzero"/></clipPath><clipPath id="055a0d22cc"><path d="M 88 9 L 99 9 L 99 20 L 88 20 Z M 88 9 " clip-rule="nonzero"/></clipPath><clipPath id="e8c2979f53"><path d="M 93.242188 9.402344 C 90.414062 9.402344 88.113281 11.703125 88.113281 14.527344 C 88.113281 17.355469 90.414062 19.65625 93.242188 19.65625 C 96.066406 19.65625 98.367188 17.355469 98.367188 14.527344 C 98.367188 11.703125 96.066406 9.402344 93.242188 9.402344 Z M 93.242188 18.902344 C 92.015625 18.902344 90.910156 18.394531 90.113281 17.582031 C 90.53125 16.214844 91.785156 15.273438 93.234375 15.269531 C 93.238281 15.269531 93.238281 15.269531 93.242188 15.269531 C 93.246094 15.269531 93.246094 15.269531 93.25 15.269531 C 94.695312 15.273438 95.945312 16.214844 96.367188 17.582031 C 95.570312 18.394531 94.464844 18.902344 93.242188 18.902344 Z M 91.75 13.027344 C 91.75 12.203125 92.421875 11.535156 93.242188 11.535156 C 94.0625 11.535156 94.730469 12.207031 94.730469 13.027344 C 94.730469 13.847656 94.066406 14.511719 93.246094 14.515625 C 93.246094 14.515625 93.242188 14.515625 93.242188 14.515625 C 93.242188 14.515625 93.238281 14.515625 93.238281 14.515625 C 92.417969 14.515625 91.75 13.851562 91.75 13.027344 Z M 96.914062 16.894531 C 96.46875 15.902344 95.648438 15.144531 94.648438 14.773438 C 95.15625 14.363281 95.484375 13.730469 95.484375 13.027344 C 95.484375 11.789062 94.480469 10.785156 93.242188 10.785156 C 92.003906 10.785156 90.996094 11.792969 90.996094 13.027344 C 90.996094 13.730469 91.324219 14.359375 91.832031 14.773438 C 90.832031 15.144531 90.011719 15.902344 89.566406 16.894531 C 89.125 16.210938 88.867188 15.402344 88.867188 14.527344 C 88.867188 12.117188 90.828125 10.15625 93.242188 10.15625 C 95.652344 10.15625 97.613281 12.117188 97.613281 14.527344 C 97.613281 15.402344 97.355469 16.214844 96.914062 16.894531 Z M 96.914062 16.894531 " clip-rule="nonzero"/></clipPath><linearGradient x1="18.379989" gradientTransform="matrix(0.376418, 0, 0, 0.376418, 81.195403, 2.483222)" y1="32" x2="45.619985" gradientUnits="userSpaceOnUse" y2="32" id="410fff8d24"><stop stop-opacity="1" stop-color="rgb(79.595947%, 42.396545%, 90.19928%)" offset="0"/><stop stop-opacity="1" stop-color="rgb(79.429626%, 42.26532%, 90.206909%)" offset="0.0078125"/><stop stop-opacity="1" stop-color="rgb(79.095459%, 42.004395%, 90.222168%)" offset="0.015625"/><stop stop-opacity="1" stop-color="rgb(78.761292%, 41.743469%, 90.238953%)" offset="0.0234375"/><stop stop-opacity="1" stop-color="rgb(78.42865%, 41.482544%, 90.254211%)" offset="0.03125"/><stop stop-opacity="1" stop-color="rgb(78.094482%, 41.221619%, 90.26947%)" offset="0.0390625"/><stop stop-opacity="1" stop-color="rgb(77.761841%, 40.960693%, 90.284729%)" offset="0.046875"/><stop stop-opacity="1" stop-color="rgb(77.427673%, 40.699768%, 90.299988%)" offset="0.0546875"/><stop stop-opacity="1" stop-color="rgb(77.093506%, 40.438843%, 90.316772%)" offset="0.0625"/><stop stop-opacity="1" stop-color="rgb(76.760864%, 40.177917%, 90.332031%)" offset="0.0703125"/><stop stop-opacity="1" stop-color="rgb(76.426697%, 39.916992%, 90.34729%)" offset="0.078125"/><stop stop-opacity="1" stop-color="rgb(76.094055%, 39.656067%, 90.362549%)" offset="0.0859375"/><stop stop-opacity="1" stop-color="rgb(75.759888%, 39.395142%, 90.379333%)" offset="0.09375"/><stop stop-opacity="1" stop-color="rgb(75.42572%, 39.134216%, 90.394592%)" offset="0.101562"/><stop stop-opacity="1" stop-color="rgb(75.093079%, 38.873291%, 90.409851%)" offset="0.109375"/><stop stop-opacity="1" stop-color="rgb(74.758911%, 38.612366%, 90.42511%)" offset="0.117188"/><stop stop-opacity="1" stop-color="rgb(74.42627%, 38.35144%, 90.441895%)" offset="0.125"/><stop stop-opacity="1" stop-color="rgb(74.092102%, 38.090515%, 90.457153%)" offset="0.132813"/><stop stop-opacity="1" stop-color="rgb(73.757935%, 37.82959%, 90.472412%)" offset="0.140625"/><stop stop-opacity="1" stop-color="rgb(73.425293%, 37.568665%, 90.487671%)" offset="0.148438"/><stop stop-opacity="1" stop-color="rgb(73.091125%, 37.309265%, 90.504456%)" offset="0.15625"/><stop stop-opacity="1" stop-color="rgb(72.758484%, 37.04834%, 90.519714%)" offset="0.164062"/><stop stop-opacity="1" stop-color="rgb(72.424316%, 36.787415%, 90.534973%)" offset="0.171875"/><stop stop-opacity="1" stop-color="rgb(72.091675%, 36.526489%, 90.550232%)" offset="0.179688"/><stop stop-opacity="1" stop-color="rgb(71.757507%, 36.265564%, 90.567017%)" offset="0.1875"/><stop stop-opacity="1" stop-color="rgb(71.42334%, 36.004639%, 90.582275%)" offset="0.195312"/><stop stop-opacity="1" stop-color="rgb(71.090698%, 35.743713%, 90.597534%)" offset="0.203125"/><stop stop-opacity="1" stop-color="rgb(70.756531%, 35.482788%, 90.612793%)" offset="0.210938"/><stop stop-opacity="1" stop-color="rgb(70.423889%, 35.221863%, 90.629578%)" offset="0.21875"/><stop stop-opacity="1" stop-color="rgb(70.089722%, 34.960938%, 90.644836%)" offset="0.226563"/><stop stop-opacity="1" stop-color="rgb(69.755554%, 34.700012%, 90.660095%)" offset="0.234375"/><stop stop-opacity="1" stop-color="rgb(69.422913%, 34.439087%, 90.675354%)" offset="0.242188"/><stop stop-opacity="1" stop-color="rgb(69.088745%, 34.178162%, 90.690613%)" offset="0.25"/><stop stop-opacity="1" stop-color="rgb(68.756104%, 33.917236%, 90.707397%)" offset="0.257813"/><stop stop-opacity="1" stop-color="rgb(68.421936%, 33.656311%, 90.722656%)" offset="0.265625"/><stop stop-opacity="1" stop-color="rgb(68.087769%, 33.395386%, 90.737915%)" offset="0.273438"/><stop stop-opacity="1" stop-color="rgb(67.755127%, 33.13446%, 90.753174%)" offset="0.28125"/><stop stop-opacity="1" stop-color="rgb(67.420959%, 32.873535%, 90.769958%)" offset="0.289063"/><stop stop-opacity="1" stop-color="rgb(67.088318%, 32.61261%, 90.785217%)" offset="0.296875"/><stop stop-opacity="1" stop-color="rgb(66.75415%, 32.351685%, 90.800476%)" offset="0.304688"/><stop stop-opacity="1" stop-color="rgb(66.419983%, 32.090759%, 90.815735%)" offset="0.3125"/><stop stop-opacity="1" stop-color="rgb(66.087341%, 31.829834%, 90.83252%)" offset="0.320313"/><stop stop-opacity="1" stop-color="rgb(65.753174%, 31.568909%, 90.847778%)" offset="0.328125"/><stop stop-opacity="1" stop-color="rgb(65.420532%, 31.307983%, 90.863037%)" offset="0.335938"/><stop stop-opacity="1" stop-color="rgb(65.086365%, 31.047058%, 90.878296%)" offset="0.34375"/><stop stop-opacity="1" stop-color="rgb(64.752197%, 30.786133%, 90.895081%)" offset="0.351563"/><stop stop-opacity="1" stop-color="rgb(64.419556%, 30.525208%, 90.910339%)" offset="0.359375"/><stop stop-opacity="1" stop-color="rgb(64.085388%, 30.264282%, 90.925598%)" offset="0.367188"/><stop stop-opacity="1" stop-color="rgb(63.752747%, 30.003357%, 90.940857%)" offset="0.375"/><stop stop-opacity="1" stop-color="rgb(63.418579%, 29.742432%, 90.957642%)" offset="0.382813"/><stop stop-opacity="1" stop-color="rgb(63.085938%, 29.481506%, 90.9729%)" offset="0.390625"/><stop stop-opacity="1" stop-color="rgb(62.75177%, 29.220581%, 90.988159%)" offset="0.398438"/><stop stop-opacity="1" stop-color="rgb(62.417603%, 28.959656%, 91.003418%)" offset="0.40625"/><stop stop-opacity="1" stop-color="rgb(62.084961%, 28.69873%, 91.018677%)" offset="0.414063"/><stop stop-opacity="1" stop-color="rgb(61.750793%, 28.437805%, 91.035461%)" offset="0.421875"/><stop stop-opacity="1" stop-color="rgb(61.418152%, 28.17688%, 91.05072%)" offset="0.429688"/><stop stop-opacity="1" stop-color="rgb(61.083984%, 27.915955%, 91.065979%)" offset="0.4375"/><stop stop-opacity="1" stop-color="rgb(60.749817%, 27.655029%, 91.081238%)" offset="0.445313"/><stop stop-opacity="1" stop-color="rgb(60.417175%, 27.394104%, 91.098022%)" offset="0.453125"/><stop stop-opacity="1" stop-color="rgb(60.083008%, 27.133179%, 91.113281%)" offset="0.460938"/><stop stop-opacity="1" stop-color="rgb(59.750366%, 26.872253%, 91.12854%)" offset="0.46875"/><stop stop-opacity="1" stop-color="rgb(59.416199%, 26.611328%, 91.143799%)" offset="0.476563"/><stop stop-opacity="1" stop-color="rgb(59.082031%, 26.350403%, 91.160583%)" offset="0.484375"/><stop stop-opacity="1" stop-color="rgb(58.74939%, 26.089478%, 91.175842%)" offset="0.492188"/><stop stop-opacity="1" stop-color="rgb(58.415222%, 25.828552%, 91.191101%)" offset="0.5"/><stop stop-opacity="1" stop-color="rgb(58.082581%, 25.567627%, 91.20636%)" offset="0.507812"/><stop stop-opacity="1" stop-color="rgb(57.748413%, 25.306702%, 91.223145%)" offset="0.515625"/><stop stop-opacity="1" stop-color="rgb(57.414246%, 25.045776%, 91.238403%)" offset="0.523437"/><stop stop-opacity="1" stop-color="rgb(57.081604%, 24.784851%, 91.253662%)" offset="0.53125"/><stop stop-opacity="1" stop-color="rgb(56.747437%, 24.523926%, 91.268921%)" offset="0.539062"/><stop stop-opacity="1" stop-color="rgb(56.414795%, 24.263%, 91.285706%)" offset="0.546875"/><stop stop-opacity="1" stop-color="rgb(56.080627%, 24.002075%, 91.300964%)" offset="0.554688"/><stop stop-opacity="1" stop-color="rgb(55.74646%, 23.74115%, 91.316223%)" offset="0.5625"/><stop stop-opacity="1" stop-color="rgb(55.413818%, 23.480225%, 91.331482%)" offset="0.570312"/><stop stop-opacity="1" stop-color="rgb(55.079651%, 23.219299%, 91.346741%)" offset="0.578125"/><stop stop-opacity="1" stop-color="rgb(54.747009%, 22.958374%, 91.363525%)" offset="0.585938"/><stop stop-opacity="1" stop-color="rgb(54.412842%, 22.697449%, 91.378784%)" offset="0.59375"/><stop stop-opacity="1" stop-color="rgb(54.0802%, 22.436523%, 91.394043%)" offset="0.601562"/><stop stop-opacity="1" stop-color="rgb(53.746033%, 22.177124%, 91.409302%)" offset="0.609375"/><stop stop-opacity="1" stop-color="rgb(53.411865%, 21.916199%, 91.426086%)" offset="0.617188"/><stop stop-opacity="1" stop-color="rgb(53.079224%, 21.655273%, 91.441345%)" offset="0.625"/><stop stop-opacity="1" stop-color="rgb(52.745056%, 21.394348%, 91.456604%)" offset="0.632812"/><stop stop-opacity="1" stop-color="rgb(52.412415%, 21.133423%, 91.471863%)" offset="0.640625"/><stop stop-opacity="1" stop-color="rgb(52.078247%, 20.872498%, 91.488647%)" offset="0.648438"/><stop stop-opacity="1" stop-color="rgb(51.74408%, 20.611572%, 91.503906%)" offset="0.65625"/><stop stop-opacity="1" stop-color="rgb(51.411438%, 20.350647%, 91.519165%)" offset="0.664062"/><stop stop-opacity="1" stop-color="rgb(51.077271%, 20.089722%, 91.534424%)" offset="0.671875"/><stop stop-opacity="1" stop-color="rgb(50.744629%, 19.828796%, 91.551208%)" offset="0.679688"/><stop stop-opacity="1" stop-color="rgb(50.410461%, 19.567871%, 91.566467%)" offset="0.6875"/><stop stop-opacity="1" stop-color="rgb(50.076294%, 19.306946%, 91.581726%)" offset="0.695312"/><stop stop-opacity="1" stop-color="rgb(49.743652%, 19.046021%, 91.596985%)" offset="0.703125"/><stop stop-opacity="1" stop-color="rgb(49.409485%, 18.785095%, 91.61377%)" offset="0.710938"/><stop stop-opacity="1" stop-color="rgb(49.076843%, 18.52417%, 91.629028%)" offset="0.71875"/><stop stop-opacity="1" stop-color="rgb(48.742676%, 18.263245%, 91.644287%)" offset="0.726562"/><stop stop-opacity="1" stop-color="rgb(48.408508%, 18.002319%, 91.659546%)" offset="0.734375"/><stop stop-opacity="1" stop-color="rgb(48.075867%, 17.741394%, 91.674805%)" offset="0.742188"/><stop stop-opacity="1" stop-color="rgb(47.741699%, 17.480469%, 91.691589%)" offset="0.75"/><stop stop-opacity="1" stop-color="rgb(47.409058%, 17.219543%, 91.706848%)" offset="0.757812"/><stop stop-opacity="1" stop-color="rgb(47.07489%, 16.958618%, 91.722107%)" offset="0.765625"/><stop stop-opacity="1" stop-color="rgb(46.742249%, 16.697693%, 91.737366%)" offset="0.773438"/><stop stop-opacity="1" stop-color="rgb(46.408081%, 16.436768%, 91.75415%)" offset="0.78125"/><stop stop-opacity="1" stop-color="rgb(46.073914%, 16.175842%, 91.769409%)" offset="0.789063"/><stop stop-opacity="1" stop-color="rgb(45.741272%, 15.914917%, 91.784668%)" offset="0.796875"/><stop stop-opacity="1" stop-color="rgb(45.407104%, 15.653992%, 91.799927%)" offset="0.804687"/><stop stop-opacity="1" stop-color="rgb(45.074463%, 15.393066%, 91.816711%)" offset="0.8125"/><stop stop-opacity="1" stop-color="rgb(44.740295%, 15.132141%, 91.83197%)" offset="0.820312"/><stop stop-opacity="1" stop-color="rgb(44.406128%, 14.871216%, 91.847229%)" offset="0.828125"/><stop stop-opacity="1" stop-color="rgb(44.073486%, 14.610291%, 91.862488%)" offset="0.835938"/><stop stop-opacity="1" stop-color="rgb(43.739319%, 14.349365%, 91.879272%)" offset="0.84375"/><stop stop-opacity="1" stop-color="rgb(43.406677%, 14.08844%, 91.894531%)" offset="0.851562"/><stop stop-opacity="1" stop-color="rgb(43.07251%, 13.827515%, 91.90979%)" offset="0.859375"/><stop stop-opacity="1" stop-color="rgb(42.738342%, 13.566589%, 91.925049%)" offset="0.867187"/><stop stop-opacity="1" stop-color="rgb(42.405701%, 13.305664%, 91.941833%)" offset="0.875"/><stop stop-opacity="1" stop-color="rgb(42.071533%, 13.044739%, 91.957092%)" offset="0.882812"/><stop stop-opacity="1" stop-color="rgb(41.738892%, 12.783813%, 91.972351%)" offset="0.890625"/><stop stop-opacity="1" stop-color="rgb(41.404724%, 12.522888%, 91.98761%)" offset="0.898438"/><stop stop-opacity="1" stop-color="rgb(41.070557%, 12.261963%, 92.002869%)" offset="0.90625"/><stop stop-opacity="1" stop-color="rgb(40.737915%, 12.001038%, 92.019653%)" offset="0.914062"/><stop stop-opacity="1" stop-color="rgb(40.403748%, 11.740112%, 92.034912%)" offset="0.921875"/><stop stop-opacity="1" stop-color="rgb(40.071106%, 11.479187%, 92.050171%)" offset="0.929688"/><stop stop-opacity="1" stop-color="rgb(39.736938%, 11.218262%, 92.06543%)" offset="0.9375"/><stop stop-opacity="1" stop-color="rgb(39.402771%, 10.957336%, 92.082214%)" offset="0.945312"/><stop stop-opacity="1" stop-color="rgb(39.070129%, 10.696411%, 92.097473%)" offset="0.953125"/><stop stop-opacity="1" stop-color="rgb(38.735962%, 10.435486%, 92.112732%)" offset="0.960938"/><stop stop-opacity="1" stop-color="rgb(38.40332%, 10.174561%, 92.127991%)" offset="0.96875"/><stop stop-opacity="1" stop-color="rgb(38.069153%, 9.913635%, 92.144775%)" offset="0.976562"/><stop stop-opacity="1" stop-color="rgb(37.736511%, 9.65271%, 92.160034%)" offset="0.984375"/><stop stop-opacity="1" stop-color="rgb(37.402344%, 9.391785%, 92.175293%)" offset="0.992188"/><stop stop-opacity="1" stop-color="rgb(37.068176%, 9.130859%, 92.190552%)" offset="1"/></linearGradient><clipPath id="1d5e843833"><path d="M 82.324219 3.613281 L 104.15625 3.613281 L 104.15625 25.445312 L 82.324219 25.445312 Z M 82.324219 3.613281 " clip-rule="nonzero"/></clipPath><clipPath id="fd181993c2"><path d="M 103.78125 14.152344 L 102.613281 14.152344 C 102.421875 9.277344 98.492188 5.347656 93.617188 5.15625 L 93.617188 3.988281 C 93.617188 3.78125 93.449219 3.613281 93.242188 3.613281 C 93.035156 3.613281 92.863281 3.78125 92.863281 3.988281 L 92.863281 5.15625 C 87.988281 5.347656 84.058594 9.277344 83.867188 14.152344 L 82.699219 14.152344 C 82.492188 14.152344 82.324219 14.320312 82.324219 14.527344 C 82.324219 14.734375 82.492188 14.90625 82.699219 14.90625 L 83.867188 14.90625 C 84.058594 19.78125 87.988281 23.710938 92.863281 23.902344 L 92.863281 25.066406 C 92.863281 25.273438 93.035156 25.445312 93.242188 25.445312 C 93.449219 25.445312 93.617188 25.273438 93.617188 25.066406 L 93.617188 23.902344 C 98.492188 23.710938 102.421875 19.78125 102.613281 14.90625 L 103.78125 14.90625 C 103.988281 14.90625 104.15625 14.734375 104.15625 14.527344 C 104.15625 14.320312 103.988281 14.152344 103.78125 14.152344 Z M 101.859375 14.152344 L 100.523438 14.152344 C 100.335938 10.425781 97.34375 7.433594 93.617188 7.242188 L 93.617188 5.910156 C 98.078125 6.101562 101.667969 9.691406 101.859375 14.152344 Z M 99.546875 14.90625 L 99.777344 14.90625 C 99.582031 18.21875 96.929688 20.871094 93.617188 21.0625 L 93.617188 20.832031 C 93.617188 20.625 93.449219 20.457031 93.242188 20.457031 C 93.035156 20.457031 92.863281 20.625 92.863281 20.832031 L 92.863281 21.0625 C 89.550781 20.871094 86.898438 18.21875 86.707031 14.90625 L 86.9375 14.90625 C 87.144531 14.90625 87.3125 14.734375 87.3125 14.527344 C 87.3125 14.320312 87.144531 14.152344 86.9375 14.152344 L 86.707031 14.152344 C 86.894531 10.839844 89.550781 8.1875 92.863281 7.992188 L 92.863281 8.222656 C 92.863281 8.429688 93.035156 8.601562 93.242188 8.601562 C 93.449219 8.601562 93.617188 8.429688 93.617188 8.222656 L 93.617188 7.992188 C 96.929688 8.183594 99.582031 10.839844 99.777344 14.152344 L 99.546875 14.152344 C 99.339844 14.152344 99.167969 14.320312 99.167969 14.527344 C 99.167969 14.734375 99.339844 14.90625 99.546875 14.90625 Z M 92.863281 5.910156 L 92.863281 7.246094 C 89.136719 7.433594 86.144531 10.425781 85.953125 14.152344 L 84.621094 14.152344 C 84.8125 9.691406 88.402344 6.101562 92.863281 5.910156 Z M 84.621094 14.90625 L 85.957031 14.90625 C 86.144531 18.632812 89.136719 21.625 92.863281 21.816406 L 92.863281 23.152344 C 88.402344 22.957031 84.8125 19.367188 84.621094 14.90625 Z M 93.617188 23.148438 L 93.617188 21.8125 C 97.34375 21.625 100.335938 18.632812 100.527344 14.90625 L 101.863281 14.90625 C 101.667969 19.367188 98.078125 22.957031 93.617188 23.148438 Z M 93.617188 23.148438 " clip-rule="nonzero"/></clipPath><linearGradient x1="2.999989" gradientTransform="matrix(0.376418, 0, 0, 0.376418, 81.195403, 2.483222)" y1="32" x2="60.999985" gradientUnits="userSpaceOnUse" y2="32" id="c0e7e8326b"><stop stop-opacity="1" stop-color="rgb(79.598999%, 42.399597%, 90.19928%)" offset="0"/><stop stop-opacity="1" stop-color="rgb(79.432678%, 42.268372%, 90.206909%)" offset="0.0078125"/><stop stop-opacity="1" stop-color="rgb(79.098511%, 42.007446%, 90.222168%)" offset="0.015625"/><stop stop-opacity="1" stop-color="rgb(78.764343%, 41.746521%, 90.237427%)" offset="0.0234375"/><stop stop-opacity="1" stop-color="rgb(78.431702%, 41.485596%, 90.254211%)" offset="0.03125"/><stop stop-opacity="1" stop-color="rgb(78.097534%, 41.22467%, 90.26947%)" offset="0.0390625"/><stop stop-opacity="1" stop-color="rgb(77.763367%, 40.963745%, 90.284729%)" offset="0.046875"/><stop stop-opacity="1" stop-color="rgb(77.430725%, 40.70282%, 90.299988%)" offset="0.0546875"/><stop stop-opacity="1" stop-color="rgb(77.096558%, 40.441895%, 90.316772%)" offset="0.0625"/><stop stop-opacity="1" stop-color="rgb(76.763916%, 40.180969%, 90.332031%)" offset="0.0703125"/><stop stop-opacity="1" stop-color="rgb(76.429749%, 39.920044%, 90.34729%)" offset="0.078125"/><stop stop-opacity="1" stop-color="rgb(76.095581%, 39.659119%, 90.362549%)" offset="0.0859375"/><stop stop-opacity="1" stop-color="rgb(75.762939%, 39.398193%, 90.379333%)" offset="0.09375"/><stop stop-opacity="1" stop-color="rgb(75.428772%, 39.137268%, 90.394592%)" offset="0.101563"/><stop stop-opacity="1" stop-color="rgb(75.094604%, 38.876343%, 90.409851%)" offset="0.109375"/><stop stop-opacity="1" stop-color="rgb(74.761963%, 38.615417%, 90.42511%)" offset="0.117188"/><stop stop-opacity="1" stop-color="rgb(74.427795%, 38.354492%, 90.441895%)" offset="0.125"/><stop stop-opacity="1" stop-color="rgb(74.095154%, 38.093567%, 90.457153%)" offset="0.132812"/><stop stop-opacity="1" stop-color="rgb(73.760986%, 37.832642%, 90.472412%)" offset="0.140625"/><stop stop-opacity="1" stop-color="rgb(73.426819%, 37.571716%, 90.487671%)" offset="0.148438"/><stop stop-opacity="1" stop-color="rgb(73.094177%, 37.310791%, 90.504456%)" offset="0.15625"/><stop stop-opacity="1" stop-color="rgb(72.76001%, 37.049866%, 90.519714%)" offset="0.164062"/><stop stop-opacity="1" stop-color="rgb(72.425842%, 36.78894%, 90.534973%)" offset="0.171875"/><stop stop-opacity="1" stop-color="rgb(72.093201%, 36.528015%, 90.550232%)" offset="0.179688"/><stop stop-opacity="1" stop-color="rgb(71.759033%, 36.26709%, 90.565491%)" offset="0.1875"/><stop stop-opacity="1" stop-color="rgb(71.426392%, 36.006165%, 90.582275%)" offset="0.195312"/><stop stop-opacity="1" stop-color="rgb(71.092224%, 35.745239%, 90.597534%)" offset="0.203125"/><stop stop-opacity="1" stop-color="rgb(70.758057%, 35.484314%, 90.612793%)" offset="0.210938"/><stop stop-opacity="1" stop-color="rgb(70.425415%, 35.223389%, 90.628052%)" offset="0.21875"/><stop stop-opacity="1" stop-color="rgb(70.091248%, 34.962463%, 90.644836%)" offset="0.226563"/><stop stop-opacity="1" stop-color="rgb(69.75708%, 34.701538%, 90.660095%)" offset="0.234375"/><stop stop-opacity="1" stop-color="rgb(69.424438%, 34.440613%, 90.675354%)" offset="0.242188"/><stop stop-opacity="1" stop-color="rgb(69.090271%, 34.179688%, 90.690613%)" offset="0.25"/><stop stop-opacity="1" stop-color="rgb(68.757629%, 33.918762%, 90.707397%)" offset="0.257812"/><stop stop-opacity="1" stop-color="rgb(68.423462%, 33.657837%, 90.722656%)" offset="0.265625"/><stop stop-opacity="1" stop-color="rgb(68.089294%, 33.395386%, 90.737915%)" offset="0.273438"/><stop stop-opacity="1" stop-color="rgb(67.756653%, 33.13446%, 90.753174%)" offset="0.28125"/><stop stop-opacity="1" stop-color="rgb(67.422485%, 32.873535%, 90.769958%)" offset="0.289062"/><stop stop-opacity="1" stop-color="rgb(67.088318%, 32.61261%, 90.785217%)" offset="0.296875"/><stop stop-opacity="1" stop-color="rgb(66.755676%, 32.351685%, 90.800476%)" offset="0.304688"/><stop stop-opacity="1" stop-color="rgb(66.421509%, 32.090759%, 90.815735%)" offset="0.3125"/><stop stop-opacity="1" stop-color="rgb(66.088867%, 31.829834%, 90.83252%)" offset="0.320313"/><stop stop-opacity="1" stop-color="rgb(65.7547%, 31.568909%, 90.847778%)" offset="0.328125"/><stop stop-opacity="1" stop-color="rgb(65.420532%, 31.307983%, 90.863037%)" offset="0.335938"/><stop stop-opacity="1" stop-color="rgb(65.087891%, 31.047058%, 90.878296%)" offset="0.34375"/><stop stop-opacity="1" stop-color="rgb(64.753723%, 30.786133%, 90.895081%)" offset="0.351562"/><stop stop-opacity="1" stop-color="rgb(64.419556%, 30.525208%, 90.910339%)" offset="0.359375"/><stop stop-opacity="1" stop-color="rgb(64.086914%, 30.264282%, 90.925598%)" offset="0.367188"/><stop stop-opacity="1" stop-color="rgb(63.752747%, 30.003357%, 90.940857%)" offset="0.375"/><stop stop-opacity="1" stop-color="rgb(63.420105%, 29.742432%, 90.956116%)" offset="0.382813"/><stop stop-opacity="1" stop-color="rgb(63.085938%, 29.481506%, 90.9729%)" offset="0.390625"/><stop stop-opacity="1" stop-color="rgb(62.75177%, 29.220581%, 90.988159%)" offset="0.398438"/><stop stop-opacity="1" stop-color="rgb(62.419128%, 28.959656%, 91.003418%)" offset="0.40625"/><stop stop-opacity="1" stop-color="rgb(62.084961%, 28.69873%, 91.018677%)" offset="0.414062"/><stop stop-opacity="1" stop-color="rgb(61.750793%, 28.437805%, 91.035461%)" offset="0.421875"/><stop stop-opacity="1" stop-color="rgb(61.418152%, 28.17688%, 91.05072%)" offset="0.429687"/><stop stop-opacity="1" stop-color="rgb(61.083984%, 27.915955%, 91.065979%)" offset="0.4375"/><stop stop-opacity="1" stop-color="rgb(60.751343%, 27.655029%, 91.081238%)" offset="0.445313"/><stop stop-opacity="1" stop-color="rgb(60.417175%, 27.394104%, 91.098022%)" offset="0.453125"/><stop stop-opacity="1" stop-color="rgb(60.083008%, 27.133179%, 91.113281%)" offset="0.460938"/><stop stop-opacity="1" stop-color="rgb(59.750366%, 26.872253%, 91.12854%)" offset="0.46875"/><stop stop-opacity="1" stop-color="rgb(59.416199%, 26.611328%, 91.143799%)" offset="0.476562"/><stop stop-opacity="1" stop-color="rgb(59.082031%, 26.350403%, 91.160583%)" offset="0.484375"/><stop stop-opacity="1" stop-color="rgb(58.74939%, 26.089478%, 91.175842%)" offset="0.492187"/><stop stop-opacity="1" stop-color="rgb(58.415222%, 25.828552%, 91.191101%)" offset="0.5"/><stop stop-opacity="1" stop-color="rgb(58.082581%, 25.567627%, 91.20636%)" offset="0.507812"/><stop stop-opacity="1" stop-color="rgb(57.748413%, 25.306702%, 91.223145%)" offset="0.515625"/><stop stop-opacity="1" stop-color="rgb(57.414246%, 25.045776%, 91.238403%)" offset="0.523438"/><stop stop-opacity="1" stop-color="rgb(57.081604%, 24.784851%, 91.253662%)" offset="0.53125"/><stop stop-opacity="1" stop-color="rgb(56.747437%, 24.523926%, 91.268921%)" offset="0.539062"/><stop stop-opacity="1" stop-color="rgb(56.413269%, 24.263%, 91.285706%)" offset="0.546875"/><stop stop-opacity="1" stop-color="rgb(56.080627%, 24.002075%, 91.300964%)" offset="0.554688"/><stop stop-opacity="1" stop-color="rgb(55.74646%, 23.74115%, 91.316223%)" offset="0.5625"/><stop stop-opacity="1" stop-color="rgb(55.413818%, 23.480225%, 91.331482%)" offset="0.570312"/><stop stop-opacity="1" stop-color="rgb(55.079651%, 23.219299%, 91.346741%)" offset="0.578125"/><stop stop-opacity="1" stop-color="rgb(54.745483%, 22.958374%, 91.363525%)" offset="0.585938"/><stop stop-opacity="1" stop-color="rgb(54.412842%, 22.697449%, 91.378784%)" offset="0.59375"/><stop stop-opacity="1" stop-color="rgb(54.078674%, 22.436523%, 91.394043%)" offset="0.601563"/><stop stop-opacity="1" stop-color="rgb(53.744507%, 22.175598%, 91.409302%)" offset="0.609375"/><stop stop-opacity="1" stop-color="rgb(53.411865%, 21.914673%, 91.426086%)" offset="0.617188"/><stop stop-opacity="1" stop-color="rgb(53.077698%, 21.653748%, 91.441345%)" offset="0.625"/><stop stop-opacity="1" stop-color="rgb(52.745056%, 21.392822%, 91.456604%)" offset="0.632812"/><stop stop-opacity="1" stop-color="rgb(52.410889%, 21.131897%, 91.471863%)" offset="0.640625"/><stop stop-opacity="1" stop-color="rgb(52.076721%, 20.870972%, 91.488647%)" offset="0.648438"/><stop stop-opacity="1" stop-color="rgb(51.74408%, 20.610046%, 91.503906%)" offset="0.65625"/><stop stop-opacity="1" stop-color="rgb(51.409912%, 20.349121%, 91.519165%)" offset="0.664062"/><stop stop-opacity="1" stop-color="rgb(51.075745%, 20.088196%, 91.534424%)" offset="0.671875"/><stop stop-opacity="1" stop-color="rgb(50.743103%, 19.827271%, 91.551208%)" offset="0.679688"/><stop stop-opacity="1" stop-color="rgb(50.408936%, 19.566345%, 91.566467%)" offset="0.6875"/><stop stop-opacity="1" stop-color="rgb(50.076294%, 19.30542%, 91.581726%)" offset="0.695312"/><stop stop-opacity="1" stop-color="rgb(49.742126%, 19.044495%, 91.596985%)" offset="0.703125"/><stop stop-opacity="1" stop-color="rgb(49.407959%, 18.783569%, 91.61377%)" offset="0.710938"/><stop stop-opacity="1" stop-color="rgb(49.075317%, 18.522644%, 91.629028%)" offset="0.71875"/><stop stop-opacity="1" stop-color="rgb(48.74115%, 18.261719%, 91.644287%)" offset="0.726563"/><stop stop-opacity="1" stop-color="rgb(48.408508%, 18.000793%, 91.659546%)" offset="0.734375"/><stop stop-opacity="1" stop-color="rgb(48.074341%, 17.739868%, 91.676331%)" offset="0.742188"/><stop stop-opacity="1" stop-color="rgb(47.740173%, 17.478943%, 91.691589%)" offset="0.75"/><stop stop-opacity="1" stop-color="rgb(47.407532%, 17.218018%, 91.706848%)" offset="0.757812"/><stop stop-opacity="1" stop-color="rgb(47.073364%, 16.957092%, 91.722107%)" offset="0.765625"/><stop stop-opacity="1" stop-color="rgb(46.739197%, 16.696167%, 91.737366%)" offset="0.773438"/><stop stop-opacity="1" stop-color="rgb(46.406555%, 16.435242%, 91.75415%)" offset="0.78125"/><stop stop-opacity="1" stop-color="rgb(46.072388%, 16.174316%, 91.769409%)" offset="0.789062"/><stop stop-opacity="1" stop-color="rgb(45.739746%, 15.913391%, 91.784668%)" offset="0.796875"/><stop stop-opacity="1" stop-color="rgb(45.405579%, 15.652466%, 91.799927%)" offset="0.804688"/><stop stop-opacity="1" stop-color="rgb(45.071411%, 15.391541%, 91.816711%)" offset="0.8125"/><stop stop-opacity="1" stop-color="rgb(44.73877%, 15.130615%, 91.83197%)" offset="0.820312"/><stop stop-opacity="1" stop-color="rgb(44.404602%, 14.86969%, 91.847229%)" offset="0.828125"/><stop stop-opacity="1" stop-color="rgb(44.070435%, 14.608765%, 91.862488%)" offset="0.835938"/><stop stop-opacity="1" stop-color="rgb(43.737793%, 14.347839%, 91.879272%)" offset="0.84375"/><stop stop-opacity="1" stop-color="rgb(43.403625%, 14.086914%, 91.894531%)" offset="0.851563"/><stop stop-opacity="1" stop-color="rgb(43.070984%, 13.825989%, 91.90979%)" offset="0.859375"/><stop stop-opacity="1" stop-color="rgb(42.736816%, 13.565063%, 91.925049%)" offset="0.867188"/><stop stop-opacity="1" stop-color="rgb(42.402649%, 13.304138%, 91.941833%)" offset="0.875"/><stop stop-opacity="1" stop-color="rgb(42.070007%, 13.043213%, 91.957092%)" offset="0.882812"/><stop stop-opacity="1" stop-color="rgb(41.73584%, 12.782288%, 91.972351%)" offset="0.890625"/><stop stop-opacity="1" stop-color="rgb(41.401672%, 12.521362%, 91.98761%)" offset="0.898438"/><stop stop-opacity="1" stop-color="rgb(41.069031%, 12.260437%, 92.004395%)" offset="0.90625"/><stop stop-opacity="1" stop-color="rgb(40.734863%, 11.999512%, 92.019653%)" offset="0.914062"/><stop stop-opacity="1" stop-color="rgb(40.402222%, 11.738586%, 92.034912%)" offset="0.921875"/><stop stop-opacity="1" stop-color="rgb(40.068054%, 11.477661%, 92.050171%)" offset="0.929688"/><stop stop-opacity="1" stop-color="rgb(39.733887%, 11.216736%, 92.066956%)" offset="0.9375"/><stop stop-opacity="1" stop-color="rgb(39.401245%, 10.955811%, 92.082214%)" offset="0.945312"/><stop stop-opacity="1" stop-color="rgb(39.067078%, 10.694885%, 92.097473%)" offset="0.953125"/><stop stop-opacity="1" stop-color="rgb(38.73291%, 10.43396%, 92.112732%)" offset="0.960938"/><stop stop-opacity="1" stop-color="rgb(38.400269%, 10.173035%, 92.127991%)" offset="0.96875"/><stop stop-opacity="1" stop-color="rgb(38.066101%, 9.912109%, 92.144775%)" offset="0.976562"/><stop stop-opacity="1" stop-color="rgb(37.733459%, 9.651184%, 92.160034%)" offset="0.984375"/><stop stop-opacity="1" stop-color="rgb(37.399292%, 9.390259%, 92.175293%)" offset="0.992188"/><stop stop-opacity="1" stop-color="rgb(37.065125%, 9.129333%, 92.190552%)" offset="1"/></linearGradient></defs><g clip-path="url(#a33f8510f6)"><path stroke-linecap="butt" transform="matrix(0.397904, 0, 0, 0.397904, 134.059547, 4.01038)" fill="none" stroke-linejoin="miter" d="M 4.012781 45.004772 C 3.659367 45.004772 3.364855 44.886968 3.129246 44.661175 C 2.903454 44.425566 2.785649 44.150688 2.785649 43.826725 L 2.785649 6.816404 C 2.785649 6.423722 2.913271 6.099759 3.14888 5.834698 C 3.404124 5.569637 3.728087 5.432199 4.120769 5.432199 L 20.014591 5.432199 C 25.561231 5.432199 29.762933 6.315734 32.619698 8.072988 C 35.48628 9.830242 36.909754 12.431763 36.909754 15.887369 C 36.909754 17.772245 36.399266 19.362608 35.368475 20.668278 C 34.337684 21.954313 32.531344 23.210896 29.93964 24.418395 C 29.870921 24.447846 29.831652 24.516566 29.831652 24.614736 C 29.831652 24.693273 29.870921 24.761992 29.93964 24.791443 C 32.816039 25.851686 34.857988 27.10827 36.065486 28.571012 C 37.272985 30.023937 37.881643 31.91863 37.881643 34.235456 C 37.881643 37.887403 36.477803 40.596912 33.689758 42.354166 C 30.901712 44.121237 26.631291 45.004772 20.878493 45.004772 Z M 20.878493 20.903887 C 22.115442 20.903887 23.106966 20.56029 23.853062 19.882913 C 24.599159 19.205536 24.972207 18.331817 24.972207 17.271574 C 24.972207 16.132795 24.550074 15.209992 23.686172 14.493346 C 22.832088 13.786518 21.771845 13.423286 20.495627 13.423286 L 16.117218 13.423286 C 15.665633 13.423286 15.34167 13.51164 15.155146 13.67853 C 14.988256 13.825786 14.899902 14.100664 14.899902 14.493346 L 14.899902 19.716023 C 14.899902 20.147973 14.968622 20.462119 15.106061 20.638826 C 15.253317 20.815534 15.479109 20.903887 15.793255 20.903887 Z M 20.603615 37.003868 C 22.05654 37.003868 23.205136 36.601368 24.039586 35.786552 C 24.883854 34.961919 25.29617 33.99003 25.29617 32.890519 C 25.29617 31.791008 24.883854 30.878021 24.05922 30.171193 C 23.244404 29.454547 22.184162 29.101133 20.878493 29.101133 L 16.117218 29.101133 C 15.665633 29.101133 15.34167 29.189487 15.155146 29.376011 C 14.988256 29.552718 14.899902 29.827596 14.899902 30.220278 L 14.899902 35.816003 C 14.899902 36.257771 14.968622 36.5621 15.106061 36.748624 C 15.253317 36.915514 15.479109 37.003868 15.793255 37.003868 Z M 42.20115 6.659331 C 42.20115 5.844515 42.53493 5.432199 43.212307 5.432199 L 72.015565 5.432199 C 72.643856 5.432199 72.96782 5.805247 72.96782 6.551344 L 72.908917 12.736092 C 72.908917 13.698164 72.457332 14.1792 71.534529 14.1792 L 55.532719 14.1792 C 54.717903 14.1792 54.305586 14.51298 54.305586 15.18054 L 54.305586 19.716023 C 54.305586 20.069437 54.39394 20.344315 54.570647 20.550473 C 54.747354 20.746814 54.982963 20.844985 55.267658 20.844985 L 64.868744 20.844985 C 65.614841 20.844985 65.987889 21.198399 65.987889 21.905227 L 65.987889 28.51211 C 65.987889 29.120767 65.663926 29.425096 65.025817 29.425096 L 55.149853 29.425096 C 54.914244 29.425096 54.708086 29.503633 54.541196 29.650889 C 54.384123 29.788328 54.305586 29.965035 54.305586 30.171193 L 54.305586 35.511674 C 54.305586 35.796369 54.354671 35.99271 54.433208 36.090881 C 54.521561 36.198868 54.688452 36.247954 54.943695 36.247954 L 72.270808 36.247954 C 73.056173 36.247954 73.448856 36.591551 73.448856 37.268928 L 73.448856 43.826725 C 73.448856 44.180139 73.340868 44.474651 73.124892 44.690626 C 72.908917 44.896785 72.594771 45.004772 72.172638 45.004772 L 43.644258 45.004772 C 43.104319 45.004772 42.731271 44.896785 42.515296 44.690626 C 42.29932 44.474651 42.20115 44.131054 42.20115 43.669652 Z M 79.358726 45.004772 C 78.936593 45.004772 78.592996 44.867334 78.347569 44.61209 C 78.102143 44.337212 77.984338 43.973981 77.984338 43.502762 L 77.984338 6.659331 C 77.984338 6.227381 78.072691 5.923052 78.239581 5.736527 C 78.426106 5.530369 78.7108 5.432199 79.103483 5.432199 L 94.035233 5.432199 C 94.496635 5.432199 94.820598 5.491101 95.007122 5.618723 C 95.21328 5.736527 95.38017 5.991771 95.537243 6.394271 L 101.074066 23.348335 C 101.182053 23.63303 101.299858 23.780286 101.447114 23.780286 C 101.555102 23.780286 101.663089 23.63303 101.771077 23.348335 L 106.728693 6.983294 C 107.003571 5.952503 107.484607 5.432199 108.161984 5.432199 L 123.57477 5.432199 C 124.222696 5.432199 124.536842 5.805247 124.536842 6.551344 L 124.536842 43.453677 C 124.536842 44.023066 124.40922 44.425566 124.134343 44.661175 C 123.869282 44.886968 123.437331 45.004772 122.838491 45.004772 L 113.816611 45.004772 C 113.28649 45.004772 112.923259 44.896785 112.7171 44.690626 C 112.530576 44.474651 112.432406 44.131054 112.432406 43.669652 L 112.432406 19.716023 C 112.432406 19.441145 112.363686 19.293889 112.226247 19.293889 C 112.039723 19.293889 111.902284 19.460779 111.794297 19.784742 L 104.117355 44.032883 C 103.862111 44.680809 103.439978 45.004772 102.841137 45.004772 L 97.235595 45.004772 C 96.597486 45.004772 96.165535 44.680809 95.94956 44.032883 L 88.282435 20.197059 C 88.16463 19.843644 88.037008 19.666937 87.89957 19.666937 C 87.722863 19.666937 87.624692 19.853462 87.624692 20.246144 L 87.624692 43.826725 C 87.624692 44.288127 87.555972 44.602273 87.418534 44.769163 C 87.281095 44.926236 86.957132 45.004772 86.456462 45.004772 Z M 79.358726 45.004772 " stroke="#8c52ff" stroke-width="2.833353" stroke-opacity="1" stroke-miterlimit="4"/></g><g fill="#ffffff" fill-opacity="1"><g transform="translate(2.79469, 21.91607)"><g><path d="M 10.484375 -11.515625 C 10.140625 -11.890625 9.773438 -12.175781 9.390625 -12.375 C 9.003906 -12.570312 8.441406 -12.671875 7.703125 -12.671875 C 6.960938 -12.671875 6.414062 -12.5625 6.0625 -12.34375 C 5.707031 -12.132812 5.53125 -11.878906 5.53125 -11.578125 C 5.53125 -11.078125 5.984375 -10.71875 6.890625 -10.5 L 10.421875 -9.59375 C 11.703125 -9.269531 12.664062 -8.695312 13.3125 -7.875 C 13.96875 -7.0625 14.296875 -6.09375 14.296875 -4.96875 C 14.296875 -3.914062 14.019531 -3 13.46875 -2.21875 C 12.914062 -1.445312 12.125 -0.847656 11.09375 -0.421875 C 10.070312 0.00390625 8.878906 0.21875 7.515625 0.21875 C 5.953125 0.21875 4.53125 -0.0390625 3.25 -0.5625 C 1.976562 -1.082031 1.09375 -1.757812 0.59375 -2.59375 C 0.519531 -2.726562 0.484375 -2.832031 0.484375 -2.90625 C 0.484375 -3.050781 0.5625 -3.175781 0.71875 -3.28125 L 2.90625 -4.796875 C 3.0625 -4.890625 3.203125 -4.9375 3.328125 -4.9375 C 3.484375 -4.9375 3.613281 -4.875 3.71875 -4.75 C 4.195312 -4.125 4.679688 -3.6875 5.171875 -3.4375 C 5.671875 -3.1875 6.332031 -3.0625 7.15625 -3.0625 C 7.945312 -3.0625 8.570312 -3.171875 9.03125 -3.390625 C 9.488281 -3.609375 9.71875 -3.90625 9.71875 -4.28125 C 9.71875 -4.550781 9.601562 -4.785156 9.375 -4.984375 C 9.15625 -5.179688 8.820312 -5.332031 8.375 -5.4375 L 5.15625 -6.21875 C 3.882812 -6.53125 2.875 -7.113281 2.125 -7.96875 C 1.375 -8.820312 1 -9.804688 1 -10.921875 C 1 -11.847656 1.265625 -12.695312 1.796875 -13.46875 C 2.335938 -14.238281 3.101562 -14.84375 4.09375 -15.28125 C 5.082031 -15.726562 6.226562 -15.953125 7.53125 -15.953125 C 8.800781 -15.953125 9.976562 -15.742188 11.0625 -15.328125 C 12.15625 -14.910156 12.945312 -14.359375 13.4375 -13.671875 C 13.53125 -13.535156 13.578125 -13.410156 13.578125 -13.296875 C 13.578125 -13.203125 13.53125 -13.113281 13.4375 -13.03125 L 11.125 -11.359375 C 11.050781 -11.296875 10.972656 -11.265625 10.890625 -11.265625 C 10.785156 -11.265625 10.648438 -11.347656 10.484375 -11.515625 Z M 10.484375 -11.515625 "/></g></g></g><g fill="#ffffff" fill-opacity="1"><g transform="translate(17.669523, 21.91607)"><g><path d="M 1.109375 -15.25 C 1.109375 -15.582031 1.238281 -15.75 1.5 -15.75 L 12.96875 -15.75 C 13.21875 -15.75 13.34375 -15.597656 13.34375 -15.296875 L 13.328125 -12.84375 C 13.328125 -12.457031 13.144531 -12.265625 12.78125 -12.265625 L 6.40625 -12.265625 C 6.082031 -12.265625 5.921875 -12.128906 5.921875 -11.859375 L 5.921875 -10.0625 C 5.921875 -9.914062 5.953125 -9.800781 6.015625 -9.71875 C 6.085938 -9.644531 6.179688 -9.609375 6.296875 -9.609375 L 10.125 -9.609375 C 10.414062 -9.609375 10.5625 -9.46875 10.5625 -9.1875 L 10.5625 -6.5625 C 10.5625 -6.320312 10.4375 -6.203125 10.1875 -6.203125 L 6.265625 -6.203125 C 6.160156 -6.203125 6.078125 -6.171875 6.015625 -6.109375 C 5.953125 -6.054688 5.921875 -5.988281 5.921875 -5.90625 L 5.921875 -3.78125 C 5.921875 -3.664062 5.9375 -3.585938 5.96875 -3.546875 C 6.007812 -3.503906 6.078125 -3.484375 6.171875 -3.484375 L 13.078125 -3.484375 C 13.378906 -3.484375 13.53125 -3.347656 13.53125 -3.078125 L 13.53125 -0.46875 C 13.53125 -0.320312 13.488281 -0.207031 13.40625 -0.125 C 13.320312 -0.0390625 13.195312 0 13.03125 0 L 1.671875 0 C 1.460938 0 1.316406 -0.0390625 1.234375 -0.125 C 1.148438 -0.207031 1.109375 -0.34375 1.109375 -0.53125 Z M 1.109375 -15.25 "/></g></g></g><g fill="#ffffff" fill-opacity="1"><g transform="translate(31.907774, 21.91607)"><g><path d="M 1.109375 -15.25 C 1.109375 -15.40625 1.140625 -15.523438 1.203125 -15.609375 C 1.273438 -15.703125 1.375 -15.75 1.5 -15.75 L 5.53125 -15.75 C 5.789062 -15.75 5.921875 -15.597656 5.921875 -15.296875 L 5.921875 -3.78125 C 5.921875 -3.664062 5.9375 -3.585938 5.96875 -3.546875 C 6.007812 -3.503906 6.078125 -3.484375 6.171875 -3.484375 L 12.5625 -3.484375 C 12.882812 -3.484375 13.046875 -3.347656 13.046875 -3.078125 L 13.046875 -0.46875 C 13.046875 -0.320312 13 -0.207031 12.90625 -0.125 C 12.820312 -0.0390625 12.691406 0 12.515625 0 L 1.671875 0 C 1.460938 0 1.316406 -0.0390625 1.234375 -0.125 C 1.148438 -0.207031 1.109375 -0.34375 1.109375 -0.53125 Z M 1.109375 -15.25 "/></g></g></g><g fill="#ffffff" fill-opacity="1"><g transform="translate(45.551882, 21.91607)"><g><path d="M 1.109375 -15.25 C 1.109375 -15.582031 1.238281 -15.75 1.5 -15.75 L 12.96875 -15.75 C 13.21875 -15.75 13.34375 -15.597656 13.34375 -15.296875 L 13.328125 -12.84375 C 13.328125 -12.457031 13.144531 -12.265625 12.78125 -12.265625 L 6.40625 -12.265625 C 6.082031 -12.265625 5.921875 -12.128906 5.921875 -11.859375 L 5.921875 -10.0625 C 5.921875 -9.914062 5.953125 -9.800781 6.015625 -9.71875 C 6.085938 -9.644531 6.179688 -9.609375 6.296875 -9.609375 L 10.125 -9.609375 C 10.414062 -9.609375 10.5625 -9.46875 10.5625 -9.1875 L 10.5625 -6.5625 C 10.5625 -6.320312 10.4375 -6.203125 10.1875 -6.203125 L 6.265625 -6.203125 C 6.160156 -6.203125 6.078125 -6.171875 6.015625 -6.109375 C 5.953125 -6.054688 5.921875 -5.988281 5.921875 -5.90625 L 5.921875 -3.78125 C 5.921875 -3.664062 5.9375 -3.585938 5.96875 -3.546875 C 6.007812 -3.503906 6.078125 -3.484375 6.171875 -3.484375 L 13.078125 -3.484375 C 13.378906 -3.484375 13.53125 -3.347656 13.53125 -3.078125 L 13.53125 -0.46875 C 13.53125 -0.320312 13.488281 -0.207031 13.40625 -0.125 C 13.320312 -0.0390625 13.195312 0 13.03125 0 L 1.671875 0 C 1.460938 0 1.316406 -0.0390625 1.234375 -0.125 C 1.148438 -0.207031 1.109375 -0.34375 1.109375 -0.53125 Z M 1.109375 -15.25 "/></g></g></g><g fill="#ffffff" fill-opacity="1"><g transform="translate(59.790133, 21.91607)"><g><path d="M 8.171875 -15.953125 C 9.347656 -15.953125 10.410156 -15.742188 11.359375 -15.328125 C 12.304688 -14.910156 13.082031 -14.332031 13.6875 -13.59375 C 14.289062 -12.863281 14.6875 -12.023438 14.875 -11.078125 C 14.914062 -10.910156 14.9375 -10.773438 14.9375 -10.671875 C 14.9375 -10.546875 14.910156 -10.460938 14.859375 -10.421875 C 14.816406 -10.378906 14.726562 -10.347656 14.59375 -10.328125 L 10.890625 -10.09375 C 10.742188 -10.09375 10.648438 -10.117188 10.609375 -10.171875 C 10.566406 -10.222656 10.523438 -10.332031 10.484375 -10.5 C 10.359375 -11.175781 10.125 -11.707031 9.78125 -12.09375 C 9.4375 -12.488281 8.941406 -12.6875 8.296875 -12.6875 C 7.460938 -12.6875 6.816406 -12.316406 6.359375 -11.578125 C 5.910156 -10.847656 5.6875 -9.65625 5.6875 -8 C 5.6875 -6.289062 5.894531 -5.070312 6.3125 -4.34375 C 6.726562 -3.625 7.382812 -3.265625 8.28125 -3.265625 C 9.03125 -3.265625 9.664062 -3.453125 10.1875 -3.828125 C 10.71875 -4.210938 11.160156 -4.851562 11.515625 -5.75 C 11.554688 -5.875 11.675781 -5.9375 11.875 -5.9375 C 11.976562 -5.9375 12.054688 -5.929688 12.109375 -5.921875 L 14.765625 -5.390625 C 14.984375 -5.316406 15.09375 -5.15625 15.09375 -4.90625 C 15.09375 -4.507812 14.847656 -3.894531 14.359375 -3.0625 C 13.867188 -2.238281 13.101562 -1.484375 12.0625 -0.796875 C 11.019531 -0.117188 9.707031 0.21875 8.125 0.21875 C 6.625 0.21875 5.304688 -0.140625 4.171875 -0.859375 C 3.046875 -1.578125 2.175781 -2.5625 1.5625 -3.8125 C 0.945312 -5.0625 0.640625 -6.484375 0.640625 -8.078125 C 0.640625 -9.660156 0.945312 -11.046875 1.5625 -12.234375 C 2.175781 -13.429688 3.050781 -14.347656 4.1875 -14.984375 C 5.332031 -15.628906 6.660156 -15.953125 8.171875 -15.953125 Z M 8.171875 -15.953125 "/></g></g></g><g fill="#ffffff" fill-opacity="1"><g transform="translate(75.428869, 21.91607)"><g><path d="M 5.53125 -15.75 C 5.789062 -15.75 5.921875 -15.597656 5.921875 -15.296875 L 5.921875 -0.609375 C 5.921875 -0.390625 5.863281 -0.234375 5.75 -0.140625 C 5.632812 -0.046875 5.457031 0 5.21875 0 L 1.671875 0 C 1.460938 0 1.316406 -0.0390625 1.234375 -0.125 C 1.148438 -0.207031 1.109375 -0.34375 1.109375 -0.53125 L 1.109375 -15.25 C 1.109375 -15.40625 1.140625 -15.523438 1.203125 -15.609375 C 1.273438 -15.703125 1.375 -15.75 1.5 -15.75 Z M 5.53125 -15.75 "/></g></g></g><g fill="#ffffff" fill-opacity="1"><g transform="translate(82.450139, 21.91607)"><g/></g></g><g fill="#ffffff" fill-opacity="1"><g transform="translate(86.694027, 21.91607)"><g/></g></g><g fill="#ffffff" fill-opacity="1"><g transform="translate(90.937916, 21.91607)"><g/></g></g><g fill="#ffffff" fill-opacity="1"><g transform="translate(95.181805, 21.91607)"><g/></g></g><g fill="#ffffff" fill-opacity="1"><g transform="translate(99.425693, 21.91607)"><g/></g></g><g fill="#ffffff" fill-opacity="1"><g transform="translate(103.663407, 21.91607)"><g><path d="M 14.71875 -15.75 C 14.9375 -15.75 15.046875 -15.628906 15.046875 -15.390625 L 15.046875 -0.375 C 15.046875 -0.269531 15 -0.179688 14.90625 -0.109375 C 14.8125 -0.0351562 14.695312 0 14.5625 0 L 11.65625 0 C 11.519531 0 11.410156 -0.0195312 11.328125 -0.0625 C 11.253906 -0.101562 11.171875 -0.1875 11.078125 -0.3125 L 5.234375 -8.234375 C 5.179688 -8.304688 5.132812 -8.332031 5.09375 -8.3125 C 5.050781 -8.300781 5.03125 -8.257812 5.03125 -8.1875 L 5.03125 -0.46875 C 5.039062 -0.300781 5.003906 -0.179688 4.921875 -0.109375 C 4.847656 -0.0351562 4.710938 0 4.515625 0 L 1.640625 0 C 1.285156 0 1.109375 -0.140625 1.109375 -0.421875 L 1.109375 -15.25 C 1.109375 -15.582031 1.257812 -15.75 1.5625 -15.75 L 5.03125 -15.75 C 5.21875 -15.75 5.351562 -15.722656 5.4375 -15.671875 C 5.53125 -15.617188 5.632812 -15.515625 5.75 -15.359375 L 10.84375 -8.28125 C 10.925781 -8.144531 11.003906 -8.078125 11.078125 -8.078125 C 11.148438 -8.078125 11.1875 -8.171875 11.1875 -8.359375 L 11.1875 -15.296875 C 11.1875 -15.597656 11.34375 -15.75 11.65625 -15.75 Z M 14.71875 -15.75 "/></g></g></g><g fill="#ffffff" fill-opacity="1"><g transform="translate(119.811411, 21.91607)"><g><path d="M 1.109375 -15.25 C 1.109375 -15.582031 1.238281 -15.75 1.5 -15.75 L 12.96875 -15.75 C 13.21875 -15.75 13.34375 -15.597656 13.34375 -15.296875 L 13.328125 -12.84375 C 13.328125 -12.457031 13.144531 -12.265625 12.78125 -12.265625 L 6.40625 -12.265625 C 6.082031 -12.265625 5.921875 -12.128906 5.921875 -11.859375 L 5.921875 -10.0625 C 5.921875 -9.914062 5.953125 -9.800781 6.015625 -9.71875 C 6.085938 -9.644531 6.179688 -9.609375 6.296875 -9.609375 L 10.125 -9.609375 C 10.414062 -9.609375 10.5625 -9.46875 10.5625 -9.1875 L 10.5625 -6.5625 C 10.5625 -6.320312 10.4375 -6.203125 10.1875 -6.203125 L 6.265625 -6.203125 C 6.160156 -6.203125 6.078125 -6.171875 6.015625 -6.109375 C 5.953125 -6.054688 5.921875 -5.988281 5.921875 -5.90625 L 5.921875 -3.78125 C 5.921875 -3.664062 5.9375 -3.585938 5.96875 -3.546875 C 6.007812 -3.503906 6.078125 -3.484375 6.171875 -3.484375 L 13.078125 -3.484375 C 13.378906 -3.484375 13.53125 -3.347656 13.53125 -3.078125 L 13.53125 -0.46875 C 13.53125 -0.320312 13.488281 -0.207031 13.40625 -0.125 C 13.320312 -0.0390625 13.195312 0 13.03125 0 L 1.671875 0 C 1.460938 0 1.316406 -0.0390625 1.234375 -0.125 C 1.148438 -0.207031 1.109375 -0.34375 1.109375 -0.53125 Z M 1.109375 -15.25 "/></g></g></g><g clip-path="url(#055a0d22cc)"><g clip-path="url(#e8c2979f53)"><path fill="url(#410fff8d24)" d="M 88.113281 9.402344 L 88.113281 19.65625 L 98.367188 19.65625 L 98.367188 9.402344 Z M 88.113281 9.402344 " fill-rule="nonzero"/></g></g><g clip-path="url(#1d5e843833)"><g clip-path="url(#fd181993c2)"><path fill="url(#c0e7e8326b)" d="M 82.324219 3.613281 L 82.324219 25.445312 L 104.15625 25.445312 L 104.15625 3.613281 Z M 82.324219 3.613281 " fill-rule="nonzero"/></g></g></svg>